<?xml version="1.0" encoding="utf-8"?>
<!-- Generator: Adobe Illustrator 19.0.0, SVG Export Plug-In . SVG Version: 6.00 Build 0)  -->
<svg version="1.1" xmlns="http://www.w3.org/2000/svg" xmlns:xlink="http://www.w3.org/1999/xlink" x="0px" y="0px"
	 viewBox="0 0 456.6 282.7" style="enable-background:new 0 0 456.6 282.7;" xml:space="preserve">
<style type="text/css">
	.st0{fill:#A38874;}
	.st1{fill:#887160;}
	.st2{fill:#EAC2A4;}
</style>
<g id="Ebene_3">
</g>
<g id="Ebene_2">
	<g>
		<polygon class="st0" points="179.4,0 252.8,17.9 359.4,0 428.5,39 456.6,119.9 359.4,244.9 277.8,259 193.8,282.7 55.7,273.1 
			0,216.4 40.3,67.6 97.8,52 114.1,0 		"/>
		<polygon class="st1" points="114.1,0 97.8,52 40.3,67.6 0,216.4 55.7,273.1 193.8,282.7 277.8,259 237.8,251 189.8,252 128.8,190 
			74.6,212 58.8,186 88.1,90 121.8,88 127.8,17.9 		"/>
		<polygon class="st1" points="257.8,234.3 324.3,225 366.8,165.8 418.9,145.5 456.6,119.9 359.4,244.9 313.6,252.8 		"/>
		<polygon class="st1" points="125.4,162 172.9,196.1 212.4,176.5 212.4,122.9 188.4,83.3 148.5,116 		"/>
		<polygon class="st1" points="300.9,186 324.3,139.7 300.9,122.9 257.8,139.7 266.4,176.5 		"/>
		<polygon class="st1" points="386.4,122.9 399.9,100.5 428.5,111.7 428.5,119.9 418.9,135.3 		"/>
		<polygon class="st2" points="179.4,0 252.8,17.9 359.4,0 428.5,39 357.2,17.9 252.8,39 		"/>
	</g>
</g>
</svg>
