<?xml version="1.0" encoding="utf-8"?>
<!-- Generator: Adobe Illustrator 19.0.0, SVG Export Plug-In . SVG Version: 6.00 Build 0)  -->
<svg version="1.1" xmlns="http://www.w3.org/2000/svg" xmlns:xlink="http://www.w3.org/1999/xlink" x="0px" y="0px"
	 viewBox="0 0 355.7 226.1" style="enable-background:new 0 0 355.7 226.1;" xml:space="preserve">
<style type="text/css">
	.st0{fill:#A38874;}
	.st1{fill:#887160;}
	.st2{fill:#EAC2A4;}
</style>
<g id="Ebene_3">
	<g>
		<polygon class="st0" points="124,0 92.7,58.7 35.2,75.9 0,193.7 92.7,226.1 259.3,218.4 328.3,168.9 355.7,122.7 324.7,75.9 
			242,64.7 181.3,11.5 		"/>
		<polygon class="st1" points="124,0 92.7,58.7 35.2,75.9 0,193.7 92.7,226.1 177.8,222.2 198.8,189.7 126.6,146.7 75.8,171.7 
			59.6,109.1 90.6,78.7 109.6,71.7 		"/>
		<polygon class="st1" points="164.6,134.7 216.6,169.7 216.6,202.7 249.1,202.7 265.6,168.7 231.6,124.5 		"/>
		<polygon class="st1" points="137.3,94.5 139.7,71.7 177.8,68 189.6,85.7 170.2,105.4 		"/>
		<polygon class="st1" points="344.3,105.4 355.7,122.7 328.3,168.9 259.3,218.4 314.5,157.7 319.7,124.5 		"/>
		<polygon class="st2" points="194.8,23.4 242,64.7 296.6,71.7 324.7,75.9 340.9,100.3 319.2,83.1 241.9,79.7 223.9,63.9 		"/>
		<path class="st2" d="M152.5,70.5"/>
	</g>
</g>
<g id="Ebene_2">
</g>
</svg>
