<?xml version="1.0" standalone="no"?>
<!DOCTYPE svg PUBLIC "-//W3C//DTD SVG 20010904//EN"
 "http://www.w3.org/TR/2001/REC-SVG-20010904/DTD/svg10.dtd">
<svg version="1.0" xmlns="http://www.w3.org/2000/svg"
 width="512.000000pt" height="512.000000pt" viewBox="0 0 512.000000 512.000000"
 preserveAspectRatio="xMidYMid meet">
<metadata>
Created by potrace 1.14, written by Peter Selinger 2001-2017
</metadata>
<g transform="translate(0.000000,512.000000) scale(0.100000,-0.100000)"
fill="#000000" stroke="none">
<path d="M2340 5049 c-13 -9 -12 -10 3 -5 9 3 17 0 17 -5 0 -7 -11 -9 -25 -7
-18 4 -25 1 -25 -11 0 -12 -2 -13 -9 -3 -4 7 -14 14 -22 15 -8 2 -20 6 -27 11
-11 7 -12 4 -4 -11 9 -15 8 -20 -3 -20 -8 0 -12 4 -9 9 3 4 -4 8 -15 8 -12 0
-21 -5 -21 -12 0 -6 -6 -4 -13 7 -11 14 -16 15 -22 5 -6 -9 -4 -11 5 -5 9 5
11 4 6 -4 -6 -9 -11 -9 -24 1 -12 10 -14 10 -8 1 4 -7 2 -13 -3 -13 -6 0 -11
5 -11 12 0 6 -7 3 -15 -8 -10 -13 -13 -14 -10 -3 4 9 0 16 -9 16 -8 0 -12 -5
-10 -11 2 -6 -7 -12 -21 -13 -53 -4 -60 -6 -68 -17 -6 -7 -7 -5 -4 6 3 9 -1
19 -9 22 -7 3 -13 2 -13 -2 3 -19 -2 -25 -11 -12 -6 9 -10 11 -10 3 0 -7 -7
-10 -17 -6 -11 5 -14 3 -8 -6 6 -10 3 -11 -14 -2 -18 10 -21 9 -22 -6 0 -11
-3 -13 -6 -5 -4 10 -8 10 -21 0 -10 -8 -13 -9 -9 -1 4 6 2 15 -4 19 -7 4 -9 3
-6 -2 3 -6 2 -16 -4 -24 -7 -13 -9 -13 -9 1 0 9 -6 16 -14 16 -8 0 -12 -6 -9
-14 4 -9 0 -11 -12 -6 -12 4 -23 0 -33 -13 -10 -13 -13 -14 -9 -3 7 22 -43 17
-55 -5 -12 -21 -28 -20 -29 2 0 14 -2 14 -9 -3 -6 -13 -9 -15 -9 -5 -1 11 -3
12 -9 2 -5 -7 -25 -14 -45 -15 -20 -2 -40 -7 -44 -12 -5 -4 -3 -5 4 -1 6 3 14
2 18 -3 6 -10 -27 -7 -45 4 -6 3 -13 -1 -16 -9 -3 -9 -10 -13 -15 -10 -5 3 -9
1 -9 -4 0 -6 -7 -13 -16 -16 -14 -5 -15 -4 -4 9 11 13 7 13 -18 -2 -17 -10
-28 -21 -26 -25 3 -5 0 -8 -5 -8 -6 0 -11 6 -11 13 -1 6 -7 1 -16 -13 l-15
-25 5 25 c3 14 3 19 0 12 -3 -6 -11 -9 -16 -6 -6 4 -8 2 -4 -4 3 -6 2 -13 -4
-17 -5 -3 -10 0 -11 7 -1 7 -5 2 -9 -12 -4 -14 -8 -18 -9 -9 -1 9 -7 16 -15
16 -8 0 -12 -6 -8 -15 3 -10 1 -13 -6 -8 -7 4 -12 3 -12 -3 0 -5 -9 -8 -20 -6
-13 3 -18 0 -14 -7 5 -8 1 -9 -11 -4 -16 6 -16 4 -4 -10 13 -16 12 -16 -10 -5
-13 7 -21 9 -18 4 3 -5 -3 -14 -13 -21 -12 -7 -21 -8 -25 -2 -8 13 -25 3 -25
-13 0 -7 4 -6 10 3 5 8 10 10 10 4 0 -19 -13 -24 -28 -11 -13 10 -14 9 -7 -2
6 -11 4 -13 -11 -7 -10 4 -15 4 -12 0 11 -10 -15 -32 -31 -26 -10 4 -12 1 -6
-9 7 -11 5 -11 -10 1 -10 8 -16 10 -12 4 6 -11 -26 -28 -46 -25 -5 1 -6 -3 -2
-9 5 -8 11 -8 20 0 9 8 15 8 20 0 4 -6 3 -10 -2 -9 -4 1 -11 0 -15 -1 -16 -5
-28 -8 -44 -9 -9 0 -14 -7 -11 -15 4 -10 0 -12 -14 -9 -11 3 -21 -1 -25 -11
-3 -9 -10 -13 -15 -10 -5 3 -9 0 -9 -5 0 -6 5 -11 12 -11 6 0 8 -3 5 -6 -4 -4
-14 -1 -24 7 -11 9 -14 10 -9 2 4 -8 1 -13 -8 -13 -9 0 -16 -8 -16 -17 0 -15
-2 -16 -10 -3 -8 13 -10 12 -10 -3 0 -11 -4 -15 -12 -11 -8 5 -9 2 -4 -11 5
-15 4 -16 -9 -5 -13 11 -16 11 -13 -1 2 -8 -4 -13 -14 -13 -11 1 -15 -5 -13
-17 3 -12 -1 -16 -11 -12 -8 3 -14 -1 -14 -11 0 -9 -5 -16 -11 -16 -5 0 -7 5
-3 12 4 7 3 8 -5 4 -6 -4 -9 -12 -6 -17 5 -8 -7 -13 -26 -11 -4 1 -5 -9 -2
-21 3 -13 1 -17 -4 -11 -5 8 -18 1 -41 -22 -19 -19 -28 -34 -20 -35 7 0 1 -5
-14 -10 -15 -6 -30 -19 -33 -30 -4 -11 -11 -16 -18 -12 -7 4 -6 -1 2 -10 12
-15 12 -17 -3 -11 -11 4 -16 2 -14 -7 2 -8 -3 -13 -11 -11 -9 2 -11 -3 -7 -13
3 -9 2 -13 -4 -10 -6 3 -13 -2 -17 -12 -3 -10 -13 -22 -20 -26 -7 -5 -11 -12
-8 -18 4 -5 -2 -9 -12 -9 -15 0 -16 -2 -3 -10 13 -9 13 -10 0 -10 -20 0 -53
-57 -37 -64 7 -2 2 -5 -10 -5 -13 -1 -23 -6 -23 -12 0 -5 6 -7 13 -4 6 4 1 -2
-12 -13 -15 -12 -21 -24 -16 -32 6 -10 4 -12 -10 -6 -15 5 -16 4 -5 -9 11 -13
11 -16 0 -13 -7 2 -15 -3 -17 -10 -3 -8 1 -10 14 -6 16 6 16 5 -2 -9 -11 -8
-23 -13 -27 -11 -13 8 -9 -11 5 -25 10 -10 8 -11 -6 -5 -19 7 -21 -14 -2 -29
6 -5 3 -7 -7 -3 -11 3 -21 -2 -28 -14 -13 -25 -13 -33 2 -24 7 4 5 -2 -5 -14
-11 -11 -16 -25 -13 -31 4 -5 1 -13 -5 -16 -5 -4 -8 -13 -5 -20 2 -7 -2 -12
-11 -11 -9 0 -18 -6 -20 -14 -4 -13 -3 -13 6 0 6 8 11 12 11 7 0 -11 -23 -51
-35 -59 -6 -5 -5 -8 4 -8 11 0 11 -4 -1 -22 -8 -13 -14 -31 -12 -41 2 -15 0
-16 -13 -5 -15 12 -15 11 -4 -10 6 -12 8 -22 4 -21 -19 3 -27 -2 -14 -10 12
-7 11 -12 -1 -30 -8 -11 -18 -18 -22 -14 -4 4 -4 0 0 -10 3 -9 11 -14 18 -10
7 4 7 1 -1 -9 -7 -8 -9 -19 -5 -23 4 -5 -1 -5 -10 -2 -10 3 -20 1 -24 -5 -4
-6 -3 -8 4 -4 6 3 13 2 17 -4 3 -5 1 -10 -6 -10 -9 0 -9 -3 0 -14 9 -11 9 -16
0 -22 -8 -5 -9 -3 -4 6 5 9 4 11 -4 6 -6 -4 -8 -13 -4 -19 13 -22 10 -45 -5
-40 -12 5 -12 2 -2 -18 12 -21 11 -22 -2 -12 -12 10 -15 10 -15 -2 0 -8 3 -15
7 -15 3 0 6 -9 6 -19 0 -16 -3 -18 -15 -8 -12 10 -13 9 -2 -10 8 -16 8 -23 1
-23 -7 0 -7 -7 1 -21 8 -17 8 -23 -2 -30 -7 -4 -17 -5 -23 -2 -5 3 -6 1 -2 -6
4 -6 12 -8 18 -5 6 4 6 -1 -1 -14 -14 -27 -14 -35 1 -26 9 5 9 3 -1 -9 -7 -9
-18 -14 -25 -10 -7 4 -7 1 1 -8 10 -12 10 -18 0 -29 -8 -8 -8 -11 -1 -7 7 4
15 0 18 -9 3 -9 2 -12 -4 -9 -13 8 -8 -57 5 -68 6 -5 -1 -5 -15 -2 -20 6 -23
5 -12 -6 14 -15 16 -33 3 -24 -5 3 -13 0 -17 -6 -4 -8 -3 -9 4 -5 7 4 12 2 12
-4 0 -6 5 -8 11 -4 8 4 7 0 -1 -15 -6 -12 -9 -35 -6 -51 2 -17 0 -28 -5 -24
-5 3 -9 -2 -9 -10 0 -10 6 -13 18 -9 11 4 8 -1 -8 -14 -23 -20 -23 -21 -6 -39
17 -16 17 -19 2 -29 -16 -12 -23 -31 -8 -21 14 9 31 -29 20 -45 -8 -11 -9 -11
-4 3 3 10 2 20 -3 22 -4 3 -8 0 -9 -7 0 -7 -3 -23 -6 -36 -4 -19 -3 -22 6 -13
16 16 25 15 25 -3 0 -8 -4 -12 -9 -9 -4 3 -8 -2 -8 -11 0 -10 5 -14 13 -10 6
4 3 -1 -7 -9 -11 -9 -14 -16 -7 -16 7 0 9 -5 5 -12 -4 -7 -3 -8 4 -4 8 5 12
-1 12 -14 0 -13 -4 -18 -11 -15 -6 4 -5 -2 2 -14 10 -14 15 -17 21 -8 4 7 8 8
8 3 0 -5 -7 -17 -15 -26 -16 -18 -11 -50 7 -50 7 0 6 -5 -1 -14 -16 -19 -4
-46 17 -38 16 5 16 4 0 -11 -19 -19 -13 -51 8 -43 8 3 11 0 7 -9 -3 -8 -10
-12 -17 -8 -6 4 -5 -1 2 -10 8 -9 12 -22 10 -29 -3 -7 5 -21 16 -31 12 -10 15
-15 7 -11 -11 5 -13 3 -8 -9 20 -49 20 -53 3 -32 -17 20 -17 20 -6 -2 6 -13
15 -23 19 -23 5 0 11 -10 14 -22 6 -22 6 -22 -8 -4 -8 11 -15 14 -15 7 0 -6
11 -23 25 -37 24 -24 24 -25 4 -19 -19 6 -20 5 -8 -8 8 -8 18 -13 22 -10 5 3
4 -4 -2 -16 -9 -16 -9 -21 0 -19 6 2 14 -3 17 -11 3 -9 0 -11 -8 -6 -9 6 -11
4 -6 -4 5 -7 15 -10 25 -7 12 5 11 2 -3 -9 -18 -14 -15 -20 8 -16 5 1 4 -5 -3
-13 -11 -13 -10 -15 6 -11 12 2 20 -2 20 -11 0 -8 -6 -13 -14 -10 -11 4 -11 1
-3 -15 6 -11 18 -23 26 -26 13 -5 13 -7 2 -14 -10 -6 -8 -9 7 -9 17 0 17 -2 5
-10 -12 -8 -12 -10 5 -10 17 0 17 -2 5 -10 -12 -8 -12 -10 5 -10 17 0 17 -2 5
-10 -11 -7 -11 -10 -2 -10 8 0 10 -5 6 -12 -6 -10 -5 -10 8 0 13 10 15 9 13
-13 -2 -14 1 -27 6 -31 5 -3 7 -10 3 -15 -3 -5 0 -8 8 -7 7 2 14 -8 16 -21 3
-19 6 -21 13 -10 6 10 9 7 9 -13 0 -18 10 -33 31 -48 17 -13 28 -28 25 -36 -3
-8 1 -14 10 -14 9 0 14 -7 12 -18 -2 -12 3 -17 19 -16 19 0 20 -2 11 -19 -7
-14 -7 -17 1 -13 10 7 16 -7 12 -28 -1 -5 5 -4 13 3 12 10 14 8 12 -14 -4 -28
8 -42 20 -24 5 8 3 9 -6 4 -9 -5 -11 -4 -6 4 4 6 12 9 17 5 5 -3 7 -10 4 -15
-4 -5 -1 -9 5 -9 7 0 10 -6 7 -14 -6 -16 16 -40 26 -29 4 3 7 1 7 -6 0 -7 5
-9 10 -6 6 3 10 1 10 -5 0 -16 26 -40 34 -32 4 3 4 -1 0 -11 -5 -13 -1 -17 16
-17 11 0 18 -5 15 -10 -3 -6 -1 -10 4 -10 6 0 11 -7 11 -15 0 -8 6 -12 13 -9
8 3 20 -2 27 -10 7 -9 16 -14 20 -11 5 3 6 -4 3 -15 -4 -14 0 -20 11 -20 9 0
16 -5 16 -11 0 -5 -4 -7 -10 -4 -6 3 -7 -1 -4 -9 3 -9 10 -14 14 -11 5 3 12 0
16 -6 4 -7 3 -9 -3 -6 -6 4 -14 0 -17 -9 -3 -9 -2 -12 5 -8 6 4 9 -2 7 -14 -2
-11 6 -30 17 -43 11 -12 15 -19 9 -16 -7 4 -17 0 -24 -8 -11 -13 -10 -14 4 -9
12 4 16 0 16 -16 0 -14 -4 -19 -12 -14 -10 6 -10 4 0 -7 14 -15 16 -95 2 -104
-6 -4 -3 -16 8 -33 9 -14 12 -23 6 -19 -12 7 -29 -21 -19 -31 3 -3 5 0 5 6 0
7 5 12 10 12 7 0 7 -6 1 -18 -6 -11 -6 -24 0 -35 8 -13 6 -15 -4 -11 -11 4
-14 -5 -13 -40 1 -24 -2 -42 -6 -40 -4 2 -9 0 -13 -6 -3 -5 -1 -10 4 -10 6 0
11 -5 11 -11 0 -6 -7 -8 -16 -5 -9 3 -12 2 -9 -5 4 -5 1 -18 -6 -27 -10 -12
-7 -11 10 3 l25 20 -17 -25 c-20 -28 -22 -44 -5 -34 7 4 8 3 4 -5 -6 -9 -11
-9 -22 0 -13 10 -13 8 -5 -15 9 -22 8 -26 -7 -27 -10 0 -12 -3 -4 -6 6 -2 12
-9 12 -15 0 -6 -7 -8 -15 -4 -13 5 -14 2 -4 -15 7 -13 7 -19 1 -15 -6 3 -13 2
-17 -4 -3 -5 0 -10 7 -11 7 0 3 -4 -10 -9 -19 -8 -21 -13 -12 -30 9 -16 8 -19
-6 -13 -14 5 -15 3 -5 -15 8 -15 8 -23 -1 -28 -7 -5 -8 -3 -3 6 6 9 4 11 -4 5
-7 -4 -11 -16 -8 -26 3 -10 -1 -23 -9 -30 -8 -6 -11 -16 -7 -23 4 -6 -1 -5
-10 3 -15 12 -17 12 -11 -4 6 -14 4 -16 -7 -10 -11 7 -12 6 -2 -6 10 -12 10
-18 1 -27 -15 -15 -31 -16 -22 0 4 7 3 8 -5 4 -9 -6 -9 -11 -1 -21 8 -10 5
-17 -12 -29 -18 -13 -20 -18 -10 -25 10 -6 9 -10 -7 -14 -13 -3 -21 -14 -22
-29 0 -12 -3 -17 -6 -10 -2 6 -9 10 -13 7 -5 -3 -7 -12 -4 -19 3 -7 -6 -20
-20 -30 -24 -15 -27 -54 -3 -39 6 3 7 1 3 -6 -5 -8 -12 -9 -20 -2 -8 7 -12 5
-13 -7 -1 -9 -3 -23 -5 -31 -2 -7 4 -16 12 -18 13 -4 13 -3 0 6 -9 7 -10 11
-3 11 20 0 24 -17 9 -33 -13 -13 1 -15 115 -14 72 0 125 3 119 7 -7 4 -25 6
-41 5 -16 -1 -31 1 -34 5 -2 4 8 6 23 5 15 -1 33 3 41 9 11 8 13 8 7 -1 -4 -7
-2 -13 3 -13 6 0 11 5 11 10 0 6 4 10 10 10 5 0 7 -6 4 -14 -3 -7 1 -16 9 -19
10 -4 13 0 10 13 -3 10 1 21 8 25 8 5 10 4 5 -3 -12 -20 29 -13 52 8 22 21 32
14 11 -7 -9 -9 -6 -10 10 -6 12 3 19 8 17 11 -9 8 28 31 39 24 19 -12 34 -10
28 4 -4 10 3 14 22 14 15 0 24 4 20 10 -4 6 6 10 24 10 16 0 33 5 37 12 5 7 3
8 -6 3 -9 -6 -11 -4 -5 4 5 9 10 10 18 2 16 -16 31 -13 18 3 -10 12 -7 14 21
9 32 -4 32 -4 13 11 -19 15 -19 16 8 6 19 -7 26 -7 22 0 -5 9 7 14 27 11 4 0
5 8 3 17 -3 19 18 23 42 9 7 -5 10 0 6 15 -4 19 -3 20 6 8 8 -12 11 -12 11 -1
0 8 6 11 16 7 14 -5 15 -4 5 8 -11 12 -7 14 21 11 18 -2 27 -1 21 2 -7 2 -13
9 -13 14 0 4 7 5 17 2 11 -4 14 -3 9 5 -4 7 -1 12 9 12 10 0 13 -5 9 -12 -4
-7 -3 -8 5 -4 9 6 9 11 1 21 -8 10 -8 15 1 21 8 5 9 3 4 -6 -5 -8 -3 -11 6 -8
8 3 13 10 12 16 -2 6 3 9 11 6 8 -3 17 0 21 6 6 9 10 9 17 -1 6 -10 7 -7 3 9
-6 21 5 28 37 23 4 0 5 9 3 20 -4 17 -2 19 10 9 12 -10 15 -9 15 4 0 10 5 14
10 11 6 -3 10 -1 10 4 0 6 6 10 13 8 6 -1 11 6 11 15 -1 10 1 17 5 16 21 -2
41 4 41 13 0 5 -5 7 -12 3 -6 -4 -8 -3 -5 4 4 5 16 8 26 5 10 -3 22 1 27 8 5
9 2 10 -10 6 -10 -4 -15 -3 -11 3 3 6 15 10 27 10 13 0 18 5 15 14 -4 10 0 13
14 11 17 -4 19 -2 8 11 -10 12 -9 13 4 8 17 -6 41 28 29 42 -4 5 0 3 9 -3 12
-10 19 -8 34 10 11 12 20 26 20 30 0 12 28 26 39 20 5 -4 7 1 3 10 -4 11 -1
17 8 17 8 0 15 5 15 10 0 6 7 10 15 10 8 0 15 4 15 10 0 5 -8 7 -17 4 -14 -5
-15 -4 -4 4 8 6 21 8 29 4 10 -3 13 -1 8 6 -4 7 -2 12 4 12 6 0 9 4 5 9 -6 10
12 25 30 26 6 0 11 4 12 9 2 15 32 28 45 20 22 -14 46 -11 41 3 -6 16 27 6 39
-11 5 -7 8 -5 8 4 0 13 1 13 10 0 8 -12 10 -12 11 5 0 18 1 19 8 2 4 -10 11
-18 15 -17 5 1 13 -4 17 -12 7 -10 9 -10 9 0 0 16 56 16 64 0 4 -7 4 -3 2 10
-2 12 0 20 5 16 5 -3 9 -12 9 -21 0 -9 6 -13 15 -10 8 4 17 2 20 -3 3 -5 19
-7 35 -5 16 2 32 -1 36 -6 7 -12 24 -2 24 14 0 8 -3 8 -9 -2 -5 -8 -11 -9 -15
-3 -13 21 24 20 39 -1 14 -20 15 -20 15 -2 1 18 2 19 13 3 12 -15 14 -15 25 0
10 15 11 15 5 -3 -6 -18 -5 -19 12 -5 11 9 16 10 11 3 -4 -7 -2 -13 3 -13 6 0
11 4 11 8 0 4 9 8 21 9 18 2 19 0 7 -15 -10 -14 -9 -14 9 1 15 13 23 15 28 7
6 -9 10 -9 16 1 7 11 9 11 9 1 0 -7 5 -10 10 -7 6 4 7 11 4 17 -4 7 -2 8 5 4
6 -4 8 -12 5 -18 -4 -7 -2 -8 4 -4 18 11 53 16 47 7 -3 -5 2 -11 10 -14 8 -4
12 -1 9 7 -3 7 4 12 20 12 14 0 23 -3 20 -7 -2 -4 3 -10 12 -13 8 -3 12 -2 9
3 -3 5 -1 12 5 16 5 3 10 1 10 -5 0 -6 8 -10 18 -8 9 1 23 -2 31 -6 11 -7 13
-5 7 9 -7 18 -6 18 12 1 18 -15 21 -15 35 -2 12 12 17 13 20 3 4 -9 8 -9 15 2
8 11 11 11 16 0 5 -11 7 -11 12 -2 4 10 9 9 21 -3 14 -13 18 -13 39 1 21 14
24 13 33 -3 9 -15 10 -15 11 0 0 16 15 19 37 5 6 -4 14 -1 16 5 4 10 6 10 6 1
1 -7 6 -13 12 -13 5 0 7 6 3 13 -5 7 0 6 11 -3 11 -9 16 -10 11 -2 -4 6 -2 12
3 12 6 0 11 -5 11 -11 0 -5 5 -7 10 -4 6 4 7 11 4 17 -4 6 1 6 14 -1 15 -8 22
-8 25 2 3 7 6 4 6 -6 1 -10 6 -15 11 -12 6 4 8 11 5 16 -3 5 2 6 11 2 13 -5
15 -3 9 7 -5 9 -4 11 4 6 9 -6 9 -12 -1 -24 -11 -15 -11 -15 2 -6 8 5 31 11
50 13 19 2 38 8 42 15 5 7 8 6 8 -4 1 -12 3 -11 11 2 9 17 12 17 35 2 20 -14
23 -14 19 -2 -4 9 0 15 9 15 8 0 13 -4 10 -9 -3 -4 2 -5 10 -2 9 3 14 9 11 13
-2 4 2 8 10 8 8 0 12 -4 10 -7 -3 -4 9 -7 25 -6 19 0 29 5 26 13 -3 8 4 9 26
3 26 -8 28 -7 17 6 -10 13 -8 13 14 5 18 -7 28 -7 33 0 3 6 12 8 20 5 8 -3 14
1 14 9 0 8 5 15 11 15 6 0 9 -6 6 -13 -3 -8 4 -14 16 -15 12 0 17 2 12 6 -22
16 -13 28 17 24 24 -4 29 -2 23 9 -7 11 -4 10 10 -1 11 -9 16 -10 11 -2 -5 8
0 12 17 12 14 0 30 7 37 15 9 11 17 12 33 4 16 -9 19 -9 14 3 -3 8 1 15 9 15
7 0 11 -3 9 -7 -2 -4 2 -7 9 -7 8 0 12 6 9 13 -2 6 1 15 8 20 8 4 10 3 5 -4
-10 -17 9 -15 23 1 6 8 7 18 3 22 -4 5 -2 5 5 1 7 -4 10 -14 7 -24 -5 -14 -4
-15 5 -2 6 8 11 11 11 6 0 -5 7 -3 15 4 8 7 12 17 9 22 -4 6 3 5 15 -1 18 -10
20 -9 14 6 -6 15 -4 16 9 5 10 -8 19 -9 22 -3 3 5 1 11 -6 13 -8 3 -6 7 5 11
9 3 17 2 17 -2 0 -5 13 -4 30 2 19 7 26 15 20 22 -6 7 -2 11 11 12 11 1 17 -2
14 -7 -3 -4 6 -3 20 3 14 7 25 18 25 26 0 8 7 11 20 8 11 -3 18 -1 14 4 -3 5
0 9 6 9 6 0 8 6 4 13 -5 9 -4 9 6 0 10 -10 19 -8 42 8 15 11 28 28 29 37 0 14
2 14 8 -2 7 -18 8 -18 14 -2 4 10 12 14 18 10 8 -4 9 -3 5 4 -4 7 3 14 19 18
18 4 24 11 20 22 -5 13 -3 13 12 1 9 -8 14 -9 10 -2 -4 6 -3 14 3 18 6 4 7 11
4 17 -4 7 -2 8 4 4 6 -4 9 -14 6 -24 -2 -9 1 -7 7 6 7 13 18 21 26 18 7 -3 12
-2 12 2 -3 19 2 33 10 28 9 -6 26 22 23 36 -1 5 1 8 6 7 19 -3 53 15 48 26 -3
9 2 11 16 7 16 -4 20 -2 15 10 -8 22 3 30 20 16 11 -8 12 -7 7 6 -4 10 0 18
10 22 9 3 13 11 9 18 -4 6 1 5 10 -3 15 -12 17 -12 11 2 -4 12 2 20 20 27 18
6 24 14 20 25 -5 11 0 18 15 22 11 3 19 9 16 13 -3 5 -1 11 5 15 6 4 8 10 5
15 -3 4 3 7 13 6 11 -1 18 7 20 23 3 19 6 21 13 10 7 -11 9 -9 9 7 0 12 10 26
23 33 12 6 14 9 5 7 -12 -3 -15 -1 -11 9 3 8 9 12 14 9 5 -3 9 2 9 11 0 10 6
15 13 12 8 -3 14 1 14 9 0 7 -4 11 -9 8 -4 -3 -8 0 -8 5 0 11 15 15 34 12 5
-1 4 4 -2 12 -10 11 -9 17 5 28 17 13 17 13 3 -6 -14 -18 -14 -19 1 -7 9 7 15
23 13 38 -2 20 0 23 11 14 11 -9 12 -7 8 11 -5 17 -3 20 8 14 11 -7 11 -5 -1
10 -14 17 -13 18 2 12 13 -4 16 -1 13 14 -2 10 1 19 6 19 6 0 7 5 4 10 -3 6 2
10 12 11 10 0 13 3 6 6 -7 2 -13 9 -13 14 0 6 5 7 10 4 10 -6 12 1 13 43 0 18
2 20 14 11 11 -10 12 -8 3 16 -9 23 -8 26 3 17 11 -9 14 -8 14 3 0 8 -3 15 -7
15 -4 0 -7 7 -7 15 0 10 4 12 12 5 9 -8 12 -4 11 12 -1 18 4 22 19 20 16 -2
17 -1 5 7 -8 5 -18 7 -22 5 -4 -3 -8 0 -8 5 0 6 7 11 16 11 8 0 12 5 8 11 -3
6 0 15 7 20 10 6 11 9 2 9 -20 0 -15 17 9 41 13 12 17 19 11 15 -7 -4 -13 -2
-13 3 0 6 6 11 13 11 8 0 7 4 -3 10 -10 6 -11 10 -2 10 7 0 12 15 12 39 0 22
5 43 10 46 6 4 8 11 5 16 -4 5 -1 9 4 9 6 0 11 4 11 10 0 5 -8 6 -17 3 -16 -6
-16 -5 -4 11 12 14 12 19 2 25 -10 6 -9 10 4 14 9 4 13 3 10 -2 -3 -5 -2 -12
3 -15 4 -2 8 6 8 20 0 18 -4 23 -15 19 -10 -4 -9 1 5 16 10 12 14 19 7 16 -6
-4 -15 -2 -19 4 -4 8 -3 9 4 5 7 -4 12 -2 12 4 0 6 4 9 9 5 5 -3 13 0 17 6 4
8 3 9 -4 5 -7 -4 -12 -2 -12 4 0 6 -5 8 -11 4 -8 -4 -8 -1 -1 12 5 11 8 31 6
47 -1 15 2 27 7 27 6 0 8 -4 5 -9 -3 -5 2 -15 12 -22 15 -12 16 -12 5 2 -7 9
-10 19 -5 23 4 4 -1 12 -10 17 -10 6 -15 16 -11 26 6 14 8 14 20 -3 7 -10 13
-13 13 -7 0 5 -9 18 -20 28 -20 18 -18 35 3 35 8 0 8 -3 -1 -9 -11 -7 -11 -9
0 -13 11 -5 14 9 14 63 -1 38 -4 69 -9 69 -4 0 -5 6 0 13 14 21 10 184 -4 184
-7 0 -13 -5 -13 -10 0 -6 -3 -7 -7 -3 -4 4 3 16 17 27 l25 19 -25 21 c-14 11
-20 19 -15 16 6 -3 10 14 10 43 0 26 -3 43 -7 37 -5 -8 -8 -7 -9 3 0 8 -2 23
-4 33 -2 9 1 15 6 11 5 -3 9 0 9 5 0 6 -4 11 -10 11 -5 0 -10 5 -10 11 0 5 4
8 8 5 5 -3 9 1 9 10 0 10 -7 12 -21 8 -17 -4 -18 -3 -6 5 13 9 13 14 2 32 -8
11 -9 18 -3 14 6 -3 11 -2 11 4 0 5 -6 12 -12 14 -8 3 -6 6 5 6 9 1 17 6 17
11 0 6 -5 9 -11 8 -6 -2 -14 3 -17 11 -2 8 0 11 5 8 5 -3 10 1 10 9 0 9 -6 13
-14 10 -9 -4 -11 -2 -6 7 14 22 13 39 -1 27 -10 -8 -13 -4 -10 16 1 14 5 28 8
31 3 3 -2 12 -12 20 -9 8 -12 12 -5 9 6 -4 14 -2 18 4 5 8 -5 13 -25 12 -3 0
-6 15 -7 34 -1 19 3 34 8 34 6 0 3 7 -5 16 -9 8 -14 20 -11 25 4 5 1 9 -6 9
-8 0 -8 4 1 15 10 12 9 16 -3 21 -9 3 -13 12 -10 22 5 11 2 14 -10 9 -9 -3
-17 -2 -17 3 0 6 5 10 12 10 8 0 6 6 -4 16 -13 13 -14 23 -7 42 8 21 7 23 -4
14 -18 -15 -30 -3 -16 15 9 10 8 13 -2 13 -11 0 -11 2 1 10 13 8 13 10 -2 10
-11 0 -15 6 -11 20 3 12 0 20 -6 20 -7 0 -9 -6 -5 -12 4 -7 3 -9 -1 -5 -14 12
-15 38 -2 31 7 -3 3 2 -7 10 -14 11 -16 16 -6 16 9 0 6 6 -8 16 -19 13 -21 18
-10 32 11 13 10 15 -4 9 -13 -4 -15 -2 -11 10 5 12 3 14 -8 8 -12 -7 -12 -6 1
11 8 10 11 16 6 12 -5 -4 -15 -1 -22 7 -16 16 -19 29 -4 20 6 -3 10 -1 10 4 0
6 -7 11 -15 11 -9 0 -12 6 -8 17 4 11 3 14 -5 9 -7 -4 -12 -3 -12 3 0 5 6 12
13 15 6 3 2 3 -10 0 -19 -4 -22 -2 -16 12 5 13 3 15 -8 10 -8 -4 -5 0 6 9 20
17 20 17 -4 10 -20 -6 -23 -4 -18 9 4 10 3 15 -2 12 -5 -3 -12 1 -15 10 -3 8
-2 12 4 9 6 -3 10 -3 10 0 0 3 -14 11 -31 17 -17 6 -27 13 -21 17 5 3 9 14 9
23 0 14 -3 15 -14 6 -11 -9 -12 -7 -7 7 5 13 4 16 -4 11 -8 -5 -12 0 -12 13 0
11 -9 22 -21 26 -15 5 -18 10 -9 15 8 5 7 9 -5 14 -10 3 -13 11 -9 18 5 8 0 7
-11 -2 -11 -9 -16 -10 -11 -2 4 6 2 12 -3 12 -6 0 -10 3 -10 8 3 20 -2 32 -13
30 -7 -2 -12 3 -10 10 1 6 -2 12 -7 12 -5 0 -12 -6 -14 -12 -3 -7 -4 2 -2 20
2 18 0 30 -6 26 -5 -3 -7 -10 -4 -15 3 -5 -1 -6 -9 -3 -9 3 -14 11 -13 17 1 7
-6 11 -17 10 -13 -1 -15 2 -7 10 6 6 11 16 11 22 0 5 -4 4 -9 -4 -8 -12 -12
-12 -25 -2 -9 8 -16 20 -16 28 0 8 -5 11 -12 7 -7 -5 -9 -2 -5 9 4 12 2 14
-10 10 -11 -4 -14 -2 -9 5 5 8 2 10 -8 6 -10 -4 -16 -1 -16 9 0 9 -9 18 -19
22 -11 3 -22 12 -25 20 -3 8 -12 15 -20 15 -8 0 -17 6 -19 13 -4 9 -8 9 -15
-1 -7 -11 -12 -6 -20 17 -6 17 -14 31 -17 31 -3 0 -3 -5 0 -10 4 -6 -5 -5 -19
2 -14 6 -26 18 -26 25 0 8 -4 11 -10 8 -5 -3 -10 -1 -10 4 0 6 -5 11 -11 11
-5 0 -7 -5 -3 -12 4 -7 3 -8 -5 -4 -6 4 -9 11 -6 16 7 11 -4 18 -40 24 -31 6
-68 39 -57 52 4 5 0 3 -9 -4 -19 -14 -30 -6 -22 16 4 13 3 14 -5 3 -7 -10 -14
-10 -29 -2 -11 5 -24 7 -28 3 -5 -4 -5 -2 -1 5 4 7 -2 17 -13 23 -18 9 -20 8
-14 -7 6 -15 5 -16 -9 -3 -9 8 -14 18 -11 23 2 4 -1 7 -6 7 -6 0 -11 -6 -11
-12 0 -7 -5 -5 -11 5 -6 9 -14 15 -20 12 -5 -4 -9 -1 -9 4 0 6 -7 11 -16 11
-8 0 -12 5 -9 10 3 6 1 10 -4 10 -6 0 -11 -4 -11 -10 0 -5 -5 -10 -11 -10 -5
0 -7 5 -3 12 5 8 2 9 -9 5 -10 -3 -17 -2 -17 4 0 6 -9 8 -21 4 -16 -5 -19 -4
-14 6 6 9 4 11 -8 6 -12 -4 -14 -2 -10 11 6 15 5 15 -10 3 -11 -9 -17 -10 -17
-2 0 6 -9 11 -20 11 -11 0 -20 5 -20 10 0 6 -4 10 -10 10 -5 0 -6 -8 -3 -17 6
-15 5 -16 -9 -3 -8 8 -13 22 -11 30 3 9 2 11 -4 4 -4 -6 -17 -14 -27 -17 -15
-6 -16 -5 -8 5 8 10 3 13 -21 13 -20 0 -31 5 -30 12 2 7 -4 10 -12 7 -8 -3
-20 -2 -27 2 -7 5 -23 7 -35 5 -13 -1 -23 2 -23 7 0 6 -8 9 -17 7 -10 -2 -18
-4 -18 -5 0 -1 -10 -3 -22 -4 -16 -2 -20 1 -13 9 7 8 1 11 -20 9 -17 -1 -30 3
-30 9 0 7 -4 7 -12 -1 -7 -7 -17 -12 -23 -12 -5 0 -3 5 5 11 12 8 11 9 -5 7
-11 -2 -26 3 -33 12 -8 8 -11 9 -7 3 4 -8 0 -13 -10 -13 -10 0 -13 5 -9 13 5
8 2 8 -9 -2 -16 -12 -22 -8 -18 12 1 5 -3 5 -9 2 -6 -4 -9 -14 -5 -22 4 -12 2
-13 -7 -6 -7 6 -21 9 -31 8 -9 -2 -15 1 -11 6 3 5 0 9 -6 9 -6 0 -8 5 -4 12 4
7 3 8 -5 4 -6 -4 -9 -11 -6 -16 3 -5 0 -12 -6 -16 -8 -5 -9 -3 -4 6 6 10 4 12
-10 6 -14 -5 -15 -3 -7 6 8 10 3 13 -19 14 -26 1 -27 0 -11 -12 15 -12 15 -12
-5 -7 -13 3 -23 9 -23 15 0 5 -10 4 -21 -3 -15 -8 -19 -8 -15 0 4 6 2 11 -3
11 -6 0 -11 -5 -11 -11 0 -7 -11 -4 -26 6 -15 9 -23 12 -20 6 7 -11 -8 -16
-29 -11 -5 2 -18 2 -27 2 -10 0 -18 6 -18 15 0 10 -6 13 -16 9 -9 -3 -18 -6
-20 -6 -3 0 -2 -6 2 -12 5 -9 2 -9 -9 1 -11 9 -17 10 -17 2 0 -6 -4 -11 -10
-11 -5 0 -7 7 -4 15 4 8 1 15 -5 15 -6 0 -11 -4 -11 -10 0 -5 -4 -10 -10 -10
-5 0 -9 3 -7 8 1 4 -2 7 -8 7 -5 0 -9 -4 -7 -8 1 -5 -3 -7 -10 -4 -7 2 -12 10
-10 16 1 6 -3 11 -9 11 -6 0 -9 -6 -6 -14 4 -9 -2 -13 -19 -13 -13 0 -24 4
-24 9 0 5 4 7 9 3 5 -3 12 -2 15 3 2 4 -22 7 -54 7 -32 0 -56 -4 -53 -8 3 -5
12 -6 22 -2 10 4 13 3 6 -4 -18 -17 -65 -18 -65 0 0 5 5 7 10 4 6 -3 10 -2 10
4 0 19 -59 5 -80 -20 -12 -13 -18 -17 -14 -9 15 27 12 36 -10 37 -11 1 -15 -1
-8 -4 22 -8 13 -20 -15 -20 -15 0 -32 6 -38 13 -7 10 -14 11 -25 3z m160 -10
c0 -4 -6 -9 -13 -12 -8 -3 -14 0 -14 7 0 7 6 13 14 13 7 0 13 -4 13 -8z m117
-4 c0 -6 -8 -11 -18 -11 -9 0 -15 5 -12 11 2 7 10 12 17 12 7 0 13 -5 13 -12z
m848 -95 c3 -5 1 -10 -4 -10 -6 0 -11 5 -11 10 0 6 2 10 4 10 3 0 8 -4 11 -10z
m-1931 -46 c3 -8 2 -12 -4 -9 -6 3 -10 10 -10 16 0 14 7 11 14 -7z m-861 -509
c-3 -9 -8 -14 -10 -11 -3 3 -2 9 2 15 9 16 15 13 8 -4z m4264 -771 c-3 -3 -12
-4 -19 -1 -8 3 -5 6 6 6 11 1 17 -2 13 -5z m-4811 -490 c1 -9 0 -13 -4 -10 -3
4 -7 14 -8 22 -1 9 0 13 4 10 3 -4 7 -14 8 -22z m4924 -122 c0 -5 -7 -9 -15
-9 -8 0 -15 4 -15 9 0 4 7 8 15 8 8 0 15 -4 15 -8z m-3 -67 c0 -8 -4 -15 -9
-15 -10 0 -11 14 -1 23 9 10 10 9 10 -8z m-8 -61 c-7 -8 -6 -14 1 -17 6 -3 6
-5 -1 -3 -17 3 -20 33 -3 33 10 0 11 -4 3 -13z m-4934 -34 c3 -5 -1 -10 -10
-10 -9 0 -13 5 -10 10 3 6 8 10 10 10 2 0 7 -4 10 -10z m4940 -40 c3 -5 1 -10
-4 -10 -6 0 -11 5 -11 10 0 6 2 10 4 10 3 0 8 -4 11 -10z m1 -100 c1 -16 -2
-30 -7 -30 -4 0 -6 9 -4 20 2 11 -2 20 -8 20 -7 0 -6 4 3 10 8 5 15 10 15 10
0 0 1 -13 1 -30z m-4919 -185 c0 -8 -4 -12 -9 -9 -10 7 -10 24 0 24 5 0 9 -7
9 -15z m13 -55 c0 -5 -5 -10 -11 -10 -5 0 -7 5 -4 10 3 6 8 10 11 10 2 0 4 -4
4 -10z m4835 -220 c3 -5 1 -10 -4 -10 -6 0 -11 5 -11 10 0 6 2 10 4 10 3 0 8
-4 11 -10z m-4605 -416 c0 -8 -19 -13 -24 -6 -3 5 1 9 9 9 8 0 15 -2 15 -3z
m50 -104 c0 -5 -2 -10 -4 -10 -3 0 -8 5 -11 10 -3 6 -1 10 4 10 6 0 11 -4 11
-10z m190 -236 c0 -8 -19 -13 -24 -6 -3 5 1 9 9 9 8 0 15 -2 15 -3z m3580
-348 c0 -2 -8 -10 -17 -17 -16 -13 -17 -12 -4 4 13 16 21 21 21 13z m-3345
-156 c3 -6 -1 -7 -9 -4 -18 7 -21 14 -7 14 6 0 13 -4 16 -10z m1130 -119 c3
-5 2 -12 -3 -15 -5 -3 -9 1 -9 9 0 17 3 19 12 6z m298 -38 c3 -5 -6 -9 -20
-10 -19 -1 -22 1 -12 8 17 11 26 11 32 2z m-1533 -283 c0 -5 -2 -10 -4 -10 -3
0 -8 5 -11 10 -3 6 -1 10 4 10 6 0 11 -4 11 -10z m-195 -460 c-3 -5 -12 -10
-18 -10 -7 0 -6 4 3 10 19 12 23 12 15 0z"/>
<path d="M2030 5019 c0 -5 -5 -7 -12 -3 -7 4 -8 3 -4 -4 4 -6 13 -9 21 -6 8 4
12 10 9 15 -7 12 -14 11 -14 -2z"/>
<path d="M4070 4709 c0 -5 5 -7 10 -4 6 3 10 8 10 11 0 2 -4 4 -10 4 -5 0 -10
-5 -10 -11z"/>
<path d="M4420 4461 c0 -6 4 -13 10 -16 6 -3 7 1 4 9 -7 18 -14 21 -14 7z"/>
<path d="M5015 3261 c-3 -5 -2 -12 3 -15 5 -3 9 1 9 9 0 17 -3 19 -12 6z"/>
<path d="M75 3070 c-3 -5 -1 -10 4 -10 6 0 11 5 11 10 0 6 -2 10 -4 10 -3 0
-8 -4 -11 -10z"/>
<path d="M66 2958 c3 -4 9 -8 15 -8 5 0 9 4 9 8 0 5 -7 9 -15 9 -8 0 -12 -4
-9 -9z"/>
<path d="M60 2933 c0 -6 8 -17 18 -24 16 -13 16 -13 2 6 -8 11 -16 22 -17 24
-2 2 -3 0 -3 -6z"/>
<path d="M67 2799 c7 -7 15 -10 18 -7 3 3 -2 9 -12 12 -14 6 -15 5 -6 -5z"/>
<path d="M420 1680 c0 -5 5 -10 11 -10 5 0 7 5 4 10 -3 6 -8 10 -11 10 -2 0
-4 -4 -4 -10z"/>
<path d="M730 1336 c0 -2 8 -10 18 -17 15 -13 16 -12 3 4 -13 16 -21 21 -21
13z"/>
<path d="M4434 1298 l-19 -23 25 20 c14 11 27 21 29 22 2 2 0 3 -6 3 -5 0 -18
-10 -29 -22z"/>
<path d="M1875 800 c-3 -5 -1 -10 4 -10 6 0 11 5 11 10 0 6 -2 10 -4 10 -3 0
-8 -4 -11 -10z"/>
<path d="M2975 789 c-4 -6 -5 -12 -2 -15 2 -3 7 2 10 11 7 17 1 20 -8 4z"/>
<path d="M673 445 c0 -8 4 -12 9 -9 5 3 6 10 3 15 -9 13 -12 11 -12 -6z"/>
</g>
</svg>
