<?xml version="1.0" standalone="no"?>
<!DOCTYPE svg PUBLIC "-//W3C//DTD SVG 20010904//EN"
 "http://www.w3.org/TR/2001/REC-SVG-20010904/DTD/svg10.dtd">
<svg version="1.0" xmlns="http://www.w3.org/2000/svg"
 width="244.000000pt" height="244.000000pt" viewBox="0 0 244.000000 244.000000"
 preserveAspectRatio="xMidYMid meet">
<metadata>
Created by potrace 1.11, written by Peter Selinger 2001-2013
</metadata>
<g transform="translate(0.000000,244.000000) scale(0.100000,-0.100000)"
fill="#000000" stroke="none">
<path d="M1110 2294 c-178 -34 -322 -96 -433 -188 -162 -135 -292 -364 -289
-511 2 -104 -1 -110 -59 -111 -27 -1 -55 -6 -62 -13 -6 -6 -14 -32 -17 -59 -5
-45 -6 -47 -34 -44 -28 3 -28 3 -21 -40 14 -81 19 -87 76 -90 49 -3 53 -5 61
-33 17 -56 108 -230 148 -283 22 -29 38 -57 35 -62 -3 -4 0 -14 7 -22 21 -22
78 -108 78 -117 0 -13 -33 -38 -60 -46 -87 -25 -110 -55 -110 -143 0 -24 -14
-84 -30 -134 -17 -49 -30 -94 -30 -99 0 -13 65 57 93 101 27 41 94 85 160 102
54 14 80 5 85 -29 5 -34 67 -55 177 -60 105 -6 116 2 37 27 -49 15 -53 19 -46
46 5 18 17 19 337 19 210 0 335 -4 339 -10 15 -20 7 -35 -28 -50 -20 -8 -45
-15 -55 -15 -10 0 -21 -5 -25 -11 -5 -9 19 -11 92 -7 105 5 155 22 174 58 13
25 64 27 138 5 61 -18 145 -96 190 -176 15 -27 30 -49 35 -49 4 0 7 -8 8 -17
0 -11 3 -13 6 -6 2 7 -4 28 -15 45 -25 42 -30 67 -41 213 -5 66 -12 127 -16
136 -3 9 -34 29 -68 44 -73 33 -97 51 -97 77 0 10 22 51 48 91 26 40 48 83 49
97 1 22 -10 15 -80 -55 -44 -44 -62 -59 -39 -33 68 77 48 77 -32 0 -77 -75
-91 -84 -81 -53 14 45 -20 69 -67 45 -16 -8 -36 -13 -43 -11 -7 3 -16 2 -21
-3 -17 -15 -110 -39 -177 -46 -75 -8 -105 -30 -86 -65 15 -28 52 -33 146 -20
47 7 87 10 90 8 2 -3 -18 -15 -44 -27 -26 -12 -55 -25 -64 -30 -8 -4 -66 -16
-129 -25 -106 -17 -118 -17 -204 -1 -82 15 -132 31 -146 47 -3 3 -25 19 -50
36 -62 42 -165 152 -182 194 -8 19 -22 66 -31 104 -54 234 -53 423 4 536 24
49 108 122 161 141 92 33 146 47 211 54 l68 7 -6 -26 c-6 -24 -4 -25 42 -31
26 -3 86 -8 133 -11 84 -7 85 -6 60 11 -52 37 -54 44 -17 44 40 0 166 -31 217
-53 42 -19 121 -98 146 -147 24 -48 43 -143 44 -217 0 -127 -36 -315 -71 -364
-29 -41 -23 -42 18 -3 36 35 37 35 122 32 l85 -3 53 105 c37 74 54 122 59 162
l7 58 41 -1 c24 -1 31 -4 18 -6 -15 -3 -22 -10 -20 -21 2 -13 18 -17 69 -20
78 -4 87 3 96 77 6 52 6 52 -19 46 -24 -6 -25 -5 -31 63 -10 105 -10 104 -79
100 -62 -3 -77 8 -63 51 3 11 1 22 -5 26 -5 3 -10 17 -10 31 0 33 -37 138 -73
204 -114 214 -309 370 -539 431 -71 19 -265 33 -318 23z m264 -40 c162 -33
294 -102 404 -212 70 -69 161 -196 150 -208 -3 -2 -28 21 -57 52 -55 62 -62
60 -31 -7 11 -24 20 -61 20 -81 l0 -37 -27 15 c-16 7 -44 14 -63 14 -19 0 -69
14 -109 30 -174 71 -373 101 -549 82 -113 -13 -248 -44 -341 -80 -40 -16 -59
-19 -73 -11 -22 12 -73 4 -105 -17 -21 -13 -23 -13 -23 6 0 11 11 49 25 85 25
69 23 78 -15 45 -13 -11 -27 -20 -32 -20 -18 0 57 93 127 157 172 160 459 237
699 187z m553 -750 c-12 -13 -37 6 -37 28 l0 22 22 -21 c12 -13 19 -25 15 -29z
m-1538 -271 c17 -73 61 -179 108 -257 36 -59 53 -81 101 -134 38 -43 24 -38
-23 8 -91 89 -218 331 -213 405 3 51 13 43 27 -22z m390 -634 c27 -9 32 -16
29 -38 -2 -18 -10 -27 -25 -29 -13 -2 -23 -10 -23 -18 0 -9 -7 -14 -17 -12
-22 4 -30 72 -12 94 14 17 9 16 48 3z m909 -2 c18 -21 9 -91 -11 -95 -10 -2
-17 3 -17 12 0 9 -8 16 -20 16 -30 0 -28 53 3 68 29 14 33 14 45 -1z"/>
<path d="M1045 1691 c-3 -5 -1 -12 5 -16 13 -8 50 3 50 16 0 12 -47 12 -55 0z"/>
<path d="M871 1629 c-62 -22 -91 -44 -91 -70 0 -27 30 -31 106 -13 37 8 82 13
99 10 19 -4 38 -1 50 8 29 21 7 62 -42 75 -49 14 -57 13 -122 -10z"/>
<path d="M1423 1635 c-27 -11 -33 -20 -33 -43 0 -36 13 -42 88 -42 31 0 74 -5
95 -11 49 -13 77 -4 77 25 0 33 -19 45 -102 67 -84 22 -84 22 -125 4z"/>
<path d="M888 1464 c-36 -15 -68 -61 -68 -99 0 -25 28 -73 49 -85 11 -5 39
-10 63 -9 34 1 38 2 18 8 l-24 7 31 22 c36 26 47 28 39 7 -3 -8 -1 -15 4 -15
5 0 15 18 21 39 26 88 -50 159 -133 125z m30 -42 c3 -16 -2 -22 -17 -22 -26 0
-36 17 -20 36 16 19 33 13 37 -14z"/>
<path d="M1470 1462 c-19 -9 -43 -32 -54 -50 -16 -29 -17 -39 -7 -72 14 -48
48 -70 103 -69 24 1 35 3 26 6 -25 6 -22 16 11 34 20 12 32 14 39 7 7 -7 13 1
17 25 17 90 -60 157 -135 119z m27 -23 c16 -16 5 -39 -17 -39 -25 0 -35 18
-20 35 15 18 22 19 37 4z"/>
<path d="M1120 1071 c0 -6 11 -18 25 -27 45 -29 165 -15 165 20 0 12 -5 13
-31 4 -29 -10 -89 -7 -136 8 -14 4 -23 2 -23 -5z"/>
<path d="M973 923 c-53 -3 -73 -8 -73 -18 0 -19 17 -23 83 -17 50 4 65 1 110
-24 74 -40 169 -41 247 0 48 25 62 28 117 23 46 -3 66 -1 74 9 7 8 9 17 7 20
-7 7 -471 13 -565 7z"/>
<path d="M1148 403 c45 -2 119 -2 165 0 45 1 8 3 -83 3 -91 0 -128 -2 -82 -3z"/>
<path d="M347 215 c-15 -25 -27 -50 -27 -55 0 -11 -77 -127 -90 -135 -30 -18
1 -25 120 -25 l130 0 20 40 c34 67 28 92 -42 160 -33 33 -66 60 -72 60 -6 0
-23 -20 -39 -45z"/>
<path d="M1455 213 c-27 -27 -37 -63 -25 -96 14 -41 38 -56 87 -57 33 0 46 5
62 26 49 62 10 144 -68 144 -23 0 -46 -7 -56 -17z"/>
<path d="M2091 194 c0 -11 3 -14 6 -6 3 7 2 16 -1 19 -3 4 -6 -2 -5 -13z"/>
<path d="M1361 88 c-1 -75 1 -88 15 -88 14 0 16 8 11 48 -4 26 -11 65 -16 87
-8 35 -9 29 -10 -47z"/>
<path d="M2110 109 c0 -51 -9 -81 -24 -80 -3 0 -13 -2 -22 -6 -28 -11 7 -23
67 -23 63 0 75 6 55 29 -8 9 -28 42 -45 75 l-31 58 0 -53z"/>
<path d="M1315 45 c-3 -8 -7 -22 -10 -30 -2 -9 2 -15 10 -15 10 0 15 10 15 30
0 32 -8 40 -15 15z"/>
<path d="M1631 24 c0 -11 3 -14 6 -6 3 7 2 16 -1 19 -3 4 -6 -2 -5 -13z"/>
</g>
</svg>
