<?xml version="1.0" encoding="utf-8"?>
<!-- Generator: Adobe Illustrator 19.0.0, SVG Export Plug-In . SVG Version: 6.00 Build 0)  -->
<svg version="1.1" id="Capa_1" xmlns="http://www.w3.org/2000/svg" xmlns:xlink="http://www.w3.org/1999/xlink" x="0px" y="0px"
	 viewBox="211 -211 512 512" style="enable-background:new 211 -211 512 512;" xml:space="preserve">
<style type="text/css">
	.st0{fill:#FFFFFF;}
	.st1{fill:none;stroke:#FFFFFF;stroke-width:8;stroke-miterlimit:10;}
</style>
<path class="st0" d="M620.7-121.5c-1.3-1.2-3.1-1.7-4.8-1.5L426.5-98.4c-3,0.4-5.3,3-5.3,6.1v36.8v25.7v155.1
	C410,111.8,392.3,103,372.3,103c-33.7,0-61.1,24.7-61.1,55s27.4,55,61.1,55s61.1-24.7,61.1-55c0-1.4-0.1-2.8-0.2-4.2
	c0.1-0.4,0.2-0.8,0.2-1.2V-24.5l177.2-22.9V64.1c-11.2-13.4-28.9-22.1-48.9-22.1c-33.7,0-61.1,24.7-61.1,55s27.4,55,61.1,55
	c33.4,0,60.6-24.2,61-54.2c0-0.1,0-0.1,0-0.2V-54.4v-25.7v-36.8C622.8-118.6,622-120.3,620.7-121.5z M372.3,200.8
	c-26.9,0-48.9-19.2-48.9-42.8s21.9-42.8,48.9-42.8s48.9,19.2,48.9,42.8S399.3,200.8,372.3,200.8z M561.7,139.7
	c-26.9,0-48.9-19.2-48.9-42.8s21.9-42.8,48.9-42.8s48.9,19.2,48.9,42.8S588.6,139.7,561.7,139.7z M433.4-36.9v-18.8V-87l177.2-22.9
	v29.8v20.4L433.4-36.9z"/>
<circle class="st1" cx="467" cy="45" r="251"/>
</svg>
