<?xml version="1.0" encoding="utf-8"?>
<!-- Generator: Adobe Illustrator 19.0.0, SVG Export Plug-In . SVG Version: 6.00 Build 0)  -->
<svg version="1.1" id="Layer_1" xmlns="http://www.w3.org/2000/svg" xmlns:xlink="http://www.w3.org/1999/xlink" x="0px" y="0px"
	 viewBox="58 -57.5 205.6 204.5" style="enable-background:new 58 -57.5 205.6 204.5;" xml:space="preserve">
<style type="text/css">
	.st0{fill:#565759;}
	.st1{fill:#6D6E70;}
	.st2{fill:#08459E;}
	.st3{fill:#929294;}
	.st4{fill:#2F6AB2;}
	.st5{fill:#B6B7B8;}
	.st6{fill:#404041;}
	.st7{fill:#DBDBDB;}
</style>
<g>
	<g>
		<polygon class="st0" points="118.7,93.2 111.8,86.4 100.4,102.2 102.8,104.6 		"/>
		<path class="st1" d="M215.4,145.7l-74.8-74.8c-1.8-1.8-1.8-4.7,0-6.5L181,24c1.8-1.8,4.7-1.8,6.5,0l74.8,74.8
			c1.8,1.8,1.8,4.7,0,6.5l-40.4,40.4C220.1,147.5,217.2,147.5,215.4,145.7z"/>
		<g>
			
				<rect x="188" y="52.4" transform="matrix(-0.7071 -0.7071 0.7071 -0.7071 296.4549 252.9148)" class="st2" width="25.3" height="25.3"/>
			
				<rect x="169" y="71.3" transform="matrix(-0.7071 -0.7071 0.7071 -0.7071 250.7568 271.8009)" class="st2" width="25.3" height="25.3"/>
			
				<rect x="206.9" y="71.3" transform="matrix(-0.7071 -0.7071 0.7071 -0.7071 315.5111 298.5428)" class="st2" width="25.3" height="25.3"/>
			
				<rect x="188" y="90.3" transform="matrix(-0.7071 -0.7071 0.7071 -0.7071 269.7132 317.6705)" class="st2" width="25.3" height="25.3"/>
			<path class="st2" d="M238.6,120.9L220.7,103l17.9-17.9l15.9,15.9c1.1,1.1,1.1,2.8,0,3.9L238.6,120.9z"/>
			<path class="st2" d="M217.6,137.9L201.7,122l17.9-17.9l17.9,17.9l-15.9,15.9C220.5,139,218.7,139,217.6,137.9z"/>
		</g>
		<path class="st3" d="M59.4-10.4l74.8,74.8c1.8,1.8,4.7,1.8,6.5,0L181,24c1.8-1.8,1.8-4.7,0-6.5l-74.8-74.8c-1.8-1.8-4.7-1.8-6.5,0
			L59.4-16.9C57.5-15.1,57.5-12.2,59.4-10.4z"/>
		<g>
			
				<rect x="127.4" y="-8.2" transform="matrix(0.7071 0.7071 -0.7071 0.7071 44.1502 -97.6953)" class="st4" width="25.3" height="25.3"/>
			
				<rect x="108.3" y="10.7" transform="matrix(0.7071 0.7071 -0.7071 0.7071 51.9493 -78.7096)" class="st4" width="25.3" height="25.3"/>
			
				<rect x="108.4" y="-27.3" transform="matrix(0.7071 0.7071 -0.7071 0.7071 25.0938 -89.867)" class="st4" width="25.3" height="25.3"/>
			
				<rect x="89.4" y="-8.2" transform="matrix(0.7071 0.7071 -0.7071 0.7071 32.9931 -70.8397)" class="st4" width="25.3" height="25.3"/>
			<path class="st4" d="M84.1-33.6L102-15.7l17.9-17.9L104-49.5c-1.1-1.1-2.8-1.1-3.9,0L84.1-33.6z"/>
			<path class="st4" d="M67.1-12.6L83,3.3l17.9-17.9L83.1-32.5l-16,15.9C66-15.5,66-13.7,67.1-12.6z"/>
		</g>
		<path class="st5" d="M148.7,88.7l-32.4-32.4c-4-4-4.6-10.3-1.4-15L147.6-6c4.2-6,12.8-6.8,18-1.6l47,47c5.2,5.2,4.4,13.8-1.6,18
			l-47.3,32.7C159,93.3,152.7,92.7,148.7,88.7z"/>
		<path class="st0" d="M208.7-3.7c-10.8-10.8-28.3-10.8-39.1,0l39.1,39.1C219.4,24.6,219.4,7.1,208.7-3.7z"/>
		
			<rect x="118.3" y="71.3" transform="matrix(-0.7071 -0.7071 0.7071 -0.7071 167.9541 220.4441)" class="st0" width="22.7" height="8.2"/>
		<path class="st5" d="M91.7,77.2c7.1-7.1,17.4-9.7,27-7l0,0l16,16l0,0c2.8,9.6,0.1,19.9-6.9,27L91.7,77.2z"/>
		<polygon class="st6" points="101.6,103.4 102.8,104.6 118.7,93.2 115.2,89.8 		"/>
		<path class="st3" d="M134.7,86.3l-8-8l-17,17l18,18.1C134.8,106.3,137.5,95.9,134.7,86.3L134.7,86.3z"/>
		<path class="st3" d="M132.5,72.5l16,16c4.1,4.1,10.6,4.7,15.4,1.4l46.8-32.3c6.2-4.3,7-13.1,1.7-18.5l-23.2-23.2L132.5,72.5z"/>
		
			<rect x="128" y="75.3" transform="matrix(0.7071 0.7071 -0.7071 0.7071 95.3188 -71.2233)" class="st6" width="11.3" height="8.2"/>
		<path class="st6" d="M208.7,35.4c10.8-10.8,10.8-28.3,0-39.1l-19.5,19.5L208.7,35.4z"/>
		<circle class="st7" cx="99.8" cy="105.3" r="3.5"/>
		<path class="st3" d="M102.2,102.8L102.2,102.8l-5,5l0,0c1.4,1.4,3.6,1.4,5,0C103.6,106.4,103.6,104.1,102.2,102.8z"/>
	</g>
</g>
</svg>
