<?xml version="1.0" encoding="utf-8"?>
<!-- Generator: Adobe Illustrator 19.0.0, SVG Export Plug-In . SVG Version: 6.00 Build 0)  -->
<svg version="1.1" id="Capa_1" xmlns="http://www.w3.org/2000/svg" xmlns:xlink="http://www.w3.org/1999/xlink" x="0px" y="0px"
	 viewBox="211 -211 512 298.6" style="enable-background:new 211 -211 512 298.6;" xml:space="preserve">
<style type="text/css">
	.st0{fill:#FFFFFF;}
</style>
<g>
	<path class="st0" d="M717.9,56.8l-25.6,25.6c-3.4,3.4-7.4,5.1-11.8,5.1c-4.4,0-8.4-1.7-11.8-5.1L467-119.2L265.4,82.5
		c-3.4,3.4-7.4,5.1-11.8,5.1c-4.4,0-8.4-1.7-11.8-5.1l-25.6-25.6c-3.4-3.4-5.1-7.4-5.1-11.8c0-4.4,1.7-8.4,5.1-11.8l239.1-239.1
		c3.4-3.4,7.4-5.1,11.8-5.1s8.4,1.7,11.8,5.1L717.9,33.2c3.4,3.4,5.1,7.4,5.1,11.8C723,49.4,721.3,53.4,717.9,56.8z"/>
</g>
</svg>
