<?xml version="1.0" encoding="utf-8"?>
<!-- Generator: Adobe Illustrator 19.0.0, SVG Export Plug-In . SVG Version: 6.00 Build 0)  -->
<svg version="1.1" id="Ebene_1" xmlns="http://www.w3.org/2000/svg" xmlns:xlink="http://www.w3.org/1999/xlink" x="0px" y="0px"
	 viewBox="108 16.8 482.4 480.2" style="enable-background:new 108 16.8 482.4 480.2;" xml:space="preserve">
<style type="text/css">
	.st0{fill:#2E9FC5;}
	.st1{fill:#B3E4FA;}
	.st2{fill:#E9F7FE;}
</style>
<g id="middle-astroid">
	<g>
		<path class="st0" d="M572.7,412.3L423.1,262.7l-49.5-23.8l-50.3-50.3l-39.9-16.8L108,16.8l0,0l153.4,177l16.8,39.9l50.3,50.3
			l25.4,47.9l149.5,149.5c19.2,19.2,50,19.2,69.2,0C591.6,462.3,591.6,431.4,572.7,412.3z"/>
		<path class="st1" d="M559.5,468c-15,15-39.4,15-54.4,0c-15-15-91.7-145.9-91.7-145.9s130.9,76.7,145.9,91.7
			C574.2,428.9,574.2,453.2,559.5,468z"/>
		<circle class="st2" cx="532" cy="441" r="22.8"/>
		<circle class="st1" cx="380.4" cy="289.4" r="17.4"/>
		<circle class="st1" cx="343.8" cy="252.6" r="12.7"/>
		<circle class="st1" cx="310.7" cy="219.7" r="4.9"/>
	</g>
</g>
</svg>
