<?xml version="1.0" encoding="utf-8"?>
<!-- Generator: Adobe Illustrator 19.0.0, SVG Export Plug-In . SVG Version: 6.00 Build 0)  -->
<svg version="1.1" id="Ebene_1" xmlns="http://www.w3.org/2000/svg" xmlns:xlink="http://www.w3.org/1999/xlink" x="0px" y="0px"
	 viewBox="108 16.8 482.4 480.2" style="enable-background:new 108 16.8 482.4 480.2;" xml:space="preserve">
<style type="text/css">
	.st0{fill:#2E9FC5;}
	.st1{fill:#B3E4FA;}
	.st2{fill:#E9F7FE;}
</style>
<g id="big-astroid">
	<g>
		<g>
			<path class="st0" d="M581.6,445.6l-91.9-91.9l-30.4-14.6l-30.9-30.9l-24.5-10.4L296,202.6l0,0l94.3,108.9l10.4,24.5l30.9,30.9
				l15.6,29.4l91.9,91.9c11.7,11.7,30.8,11.7,42.5,0C593.3,476.5,593.3,457.4,581.6,445.6z"/>
			<path class="st1" d="M573.4,480c-9.2,9.2-24.2,9.2-33.4,0c-9.2-9.2-56.4-89.7-56.4-89.7s80.6,47.1,89.8,56.3
				C582.7,455.8,582.6,470.8,573.4,480z"/>
			<circle class="st2" cx="556.7" cy="463.2" r="14.1"/>
			<circle class="st1" cx="463.5" cy="370" r="10.7"/>
			<circle class="st1" cx="440.9" cy="347.5" r="7.8"/>
			<circle class="st1" cx="420.6" cy="327.1" r="3"/>
		</g>
		<g>
			<path class="st0" d="M274.5,186.7L170.9,83c-1-0.9-0.9-2.5,0-3.5s2.5-1,3.5,0l103.7,103.8c1,0.9,1,2.5,0,3.5
				c-0.5,0.5-1.2,0.7-1.8,0.7C275.6,187.5,275,187.2,274.5,186.7z"/>
		</g>
		<g>
			<g>
				<path class="st0" d="M163.8,76l-4.2-4.2c-1-0.9-0.9-2.5,0-3.5s2.5-1,3.5,0l4.2,4.2c1,0.9,1,2.5,0,3.5c-0.5,0.5-1.2,0.7-1.8,0.7
					S164.2,76.5,163.8,76z"/>
			</g>
			<g>
				<path class="st0" d="M150.2,62.5l-9.3-9.3c-1-0.9-0.9-2.5,0-3.5s2.5-1,3.5,0l9.3,9.3c1,0.9,1,2.5,0,3.5
					c-0.5,0.5-1.2,0.7-1.8,0.7S150.7,62.9,150.2,62.5z M131.6,43.8l-9.3-9.3c-1-0.9-0.9-2.5,0-3.5c0.9-1,2.5-1,3.5,0l9.3,9.3
					c1,0.9,1,2.5,0,3.5c-0.5,0.5-1.2,0.7-1.8,0.7S132.1,44.3,131.6,43.8z"/>
			</g>
			<g>
				<path class="st0" d="M113,25.2l-4.2-4.2c-1-0.9-1-2.5,0-3.5c0.9-1,2.5-1,3.5,0l4.2,4.2c1,0.9,1,2.5,0,3.5
					c-0.5,0.5-1.2,0.7-1.8,0.7C114.1,25.9,113.5,25.7,113,25.2z"/>
			</g>
		</g>
	</g>
</g>
</svg>
