<?xml version="1.0" encoding="utf-8"?>
<!-- Generator: Adobe Illustrator 19.0.0, SVG Export Plug-In . SVG Version: 6.00 Build 0)  -->
<svg version="1.1" id="first-mountains" xmlns="http://www.w3.org/2000/svg" xmlns:xlink="http://www.w3.org/1999/xlink" x="0px"
	 y="0px" viewBox="38 -72.2 336 235.2" style="enable-background:new 38 -72.2 336 235.2;" xml:space="preserve">
<style type="text/css">
	.st0{clip-path:url(#SVGID_2_);fill:#44787F;}
	.st1{clip-path:url(#SVGID_4_);fill:#44787F;}
	.st2{clip-path:url(#SVGID_6_);fill:#44787F;}
	.st3{clip-path:url(#SVGID_8_);fill:#44787F;}
	.st4{clip-path:url(#SVGID_10_);fill:#44787F;}
</style>
<g>
	<g>
		<g>
			<g>
				<g>
					<defs>
						<path id="SVGID_1_" d="M36.9,164h171.3l-21.3-66.4l-0.3-6.4c0,0,0.7-3.8,0-7.9c-0.7-4.2-6.7-4.5-15.3-3
							c-8.7,1.5-11.3-5.5-16-11.5c-4.7-6-6.7-6-16-11.3c-9.3-5.3-8.7,0.7-13.3-4.7c-4.7-5.3-2.7-3.3-9.3-10
							c-6.7-6.7-13.3,0-16.7-5.3c-3.3-5.3-2.7-1.3-12.7-6s0,0-6-1.3s-8-0.7-10-6s-4.7-5.3-14-7.3s-5.3-0.7-8-4.7
							c-2.4-3.6-10.7-7.1-12.5-7.8V164H36.9z"/>
					</defs>
					<clipPath id="SVGID_2_">
						<use xlink:href="#SVGID_1_"  style="overflow:visible;"/>
					</clipPath>
					<polygon class="st0" points="207.1,4.2 207.5,24.4 36.9,27.7 36.9,4.2 					"/>
				</g>
			</g>
		</g>
		<g>
			<g>
				<g>
					<defs>
						<path id="SVGID_3_" d="M36.9,164h171.3l-21.3-66.4l-0.3-6.4c0,0,0.7-3.8,0-7.9c-0.7-4.2-6.7-4.5-15.3-3
							c-8.7,1.5-11.3-5.5-16-11.5c-4.7-6-6.7-6-16-11.3c-9.3-5.3-8.7,0.7-13.3-4.7c-4.7-5.3-2.7-3.3-9.3-10
							c-6.7-6.7-13.3,0-16.7-5.3c-3.3-5.3-2.7-1.3-12.7-6s0,0-6-1.3s-8-0.7-10-6s-4.7-5.3-14-7.3s-5.3-0.7-8-4.7
							c-2.4-3.6-10.7-7.1-12.5-7.8V164H36.9z"/>
					</defs>
					<clipPath id="SVGID_4_">
						<use xlink:href="#SVGID_3_"  style="overflow:visible;"/>
					</clipPath>
					<polygon class="st1" points="207.5,24.4 208.2,60.8 208.2,164 36.9,164 36.9,27.7 					"/>
				</g>
			</g>
		</g>
	</g>
</g>
<g>
	<g>
		<g>
			<g>
				<g>
					<defs>
						<path id="SVGID_5_" d="M374.8-5.4c-2.5-0.9-6.7-1.9-9,0.8c-3.5,4-7.4,7.3-7.4,7.3h-4.9c0,0-7.9,8.7-9.9,10.7s-6.4,9.3-6.4,9.3
							s-2,2.7-5.4,3.3c-3.5,0.7-4,7.3-5.4,7.3c-1.5,0,4-3.3-4.5,0c-8.4,3.3-13.9,8.6-14.8,11.7c-1,3-1,7.1-2,8.4s-13.4-5.3-15.8-2.7
							c-2.5,2.7,0,8.4-8.9,11.5s-13.4,0.6-15.8,5.2c-2.5,4.6-4.5,5.6-9.4,9.8c-4.9,4.2-18.8,3.7-19.8,6c-1,2.2-3.5,2.2-4.7,5.2
							c-1.2,3,1.2-4.3-3.2,4.7c-4.5,9-9.7,65-9.7,70.1c0,4.8,114,1.7,157.3,0V-5.4H374.8z"/>
					</defs>
					<clipPath id="SVGID_6_">
						<use xlink:href="#SVGID_5_"  style="overflow:visible;"/>
					</clipPath>
					<polygon class="st2" points="374.8,15.4 217.5,18.4 350.8,-7.4 374,4.6 					"/>
				</g>
			</g>
		</g>
		<g>
			<g>
				<g>
					<defs>
						<path id="SVGID_7_" d="M371.2,4.6c-2.5-0.9-3.1-11.9-5.4-9.2c-3.5,4-7.4,7.3-7.4,7.3h-4.9c0,0-7.9,8.7-9.9,10.7
							s-6.4,9.3-6.4,9.3s-2,2.7-5.4,3.3c-3.5,0.7-4,7.3-5.4,7.3c-1.5,0,4-3.3-4.5,0c-8.4,3.3-13.9,8.6-14.8,11.7c-1,3-1,7.1-2,8.4
							s-13.4-5.3-15.8-2.7c-2.5,2.7,0,8.4-8.9,11.5s-13.4,0.6-15.8,5.2c-2.5,4.6-4.5,5.6-9.4,9.8c-4.9,4.2-18.8,3.7-19.8,6
							c-1,2.2-3.5,2.2-4.7,5.2c-1.2,3,1.2-4.3-3.2,4.7c-4.5,9-9.7,65-9.7,70.1c0,4.8,114,1.7,157.3,0L374,4.6H371.2z"/>
					</defs>
					<clipPath id="SVGID_8_">
						<use xlink:href="#SVGID_7_"  style="overflow:visible;"/>
					</clipPath>
					<polygon class="st3" points="374.8,152 217.5,155.1 217.5,18.4 374.8,15.4 					"/>
				</g>
			</g>
		</g>
		<g>
			<g>
				<g>
					<defs>
						<path id="SVGID_9_" d="M371.2,4.6c-2.5-0.9-3.1-11.9-5.4-9.2c-3.5,4-7.4,7.3-7.4,7.3h-4.9c0,0-7.9,8.7-9.9,10.7
							s-6.4,9.3-6.4,9.3s-2,2.7-5.4,3.3c-3.5,0.7-4,7.3-5.4,7.3c-1.5,0,4-3.3-4.5,0c-8.4,3.3-13.9,8.6-14.8,11.7c-1,3-1,7.1-2,8.4
							s-13.4-5.3-15.8-2.7c-2.5,2.7,0,8.4-8.9,11.5s-13.4,0.6-15.8,5.2c-2.5,4.6-4.5,5.6-9.4,9.8c-4.9,4.2-18.8,3.7-19.8,6
							c-1,2.2-3.5,2.2-4.7,5.2c-1.2,3,1.2-4.3-3.2,4.7c-4.5,9-9.7,65-9.7,70.1c0,4.8,114,1.7,157.3,0l0-158.6H371.2z"/>
					</defs>
					<clipPath id="SVGID_10_">
						<use xlink:href="#SVGID_9_"  style="overflow:visible;"/>
					</clipPath>
					<polygon class="st4" points="217.5,155.1 374.8,152 374.8,163.3 217.5,163.3 					"/>
				</g>
			</g>
		</g>
	</g>
</g>
</svg>
