<?xml version="1.0" encoding="utf-8"?>
<!-- Generator: Adobe Illustrator 19.0.0, SVG Export Plug-In . SVG Version: 6.00 Build 0)  -->
<svg version="1.1" id="third-mountains" xmlns="http://www.w3.org/2000/svg" xmlns:xlink="http://www.w3.org/1999/xlink" x="0px"
	 y="0px" viewBox="38 -72.2 336 235.2" style="enable-background:new 38 -72.2 336 235.2;" xml:space="preserve">
<style type="text/css">
	.st0{fill:#88A8AE;}
	.st1{fill:#95B8BF;}
</style>
<g>
	<path class="st0" d="M38,17.7c0,0,44-13.3,51.5-10.3s-0.5,6,12,3.3c12.5-2.8,18-11.3,23.5-5.8s10.5,11.5,13,12s9,6,17.5,8
		s30-3.5,35.5,0s22,1.4,29,0.5c7-1,13,3.5,18.5,5s9,1,16.5,0s13-5,20.5-7.5s5-6.9,14-5.7c9,1.2,14,5.2,17.5,5.7s8.5,2.5,15.5,2
		s50.1-6.5,51.6-7.3c1.5-0.8,0,145.4,0,145.4H38"/>
</g>
<g>
	<path class="st1" d="M138.1,28.4c0,0-0.3-3.9,6.2,2.9s9.3-1.4,12.8,3.6s3.4,8.7,6.9,12.5s4.6,2.5,4.1-4.2s1.8-13.2,3.8-10.2
		s13.4,6.1,15.5,11.7s0.3,5.1,8.4,8.4c8.2,3.3,21.5,6.2,23.1,13c1.5,6.9-5.8,3.3-5.4,5.8c0.5,2.5-8.6,5-8.6,5l-32.4-12.6l-30.4-13.8
		c0,0,8.4-1.8-2.1-16.3"/>
</g>
<g>
	<path class="st1" d="M280.5,22.4c0,0,7.5-4.8,8,0s2.9,3.5,4.6,5.3s1.6,6,1.2,8S276,48.3,276,48.3s-7.3-10.4-3.9-14
		C275.6,30.7,280.3,27.9,280.5,22.4z"/>
</g>
<g>
	<path class="st1" d="M211.8,34.3c0,0,24.7,3.8,30.6,1.6c6-2.2,7.4,0.2,4.7,4.2s-6.3,1.2-1.5,6.6s9.5,10.2,9.5,10.3
		s-10.4,4.9-10.1,6c0.3,1.1,0.4,13.5-7.8,3.8s1.9-2.6-6.3-6.1c-4.3-1.9-13.7-3.7-12.3-8.5c1.4-4.7,8.1-5.2,0.9-6.3
		c-7.3-1.2-7.5,3.4-9.5-2.2C208.2,38.2,203.1,33.2,211.8,34.3z"/>
</g>
<g>
	<path class="st1" d="M72.4,18.2c0,0,8.1-8.7,11.5-5.2c3.4,3.4,3.7,7.2,3.7,7.2l-8.4,5.5L72.4,18.2z"/>
</g>
<g>
	<path class="st1" d="M106.2,12.2c0,0,9.1,3,11.3,6.7c2.2,3.8,2.9,3.4,5.5,6.7c2.6,3.3,6.9,5.5,4.6,10c-2.3,4.5-10,3-15.2,3
		s-9.7-2.7-11.5-5.1c-1.8-2.4-1.3-14.5-3.2-14.7c-1.9-0.2,6.6,2.7,8.6,0C108.2,16.2,101.4,10.3,106.2,12.2z"/>
</g>
</svg>
