<?xml version="1.0" encoding="utf-8"?>
<!-- Generator: Adobe Illustrator 19.0.0, SVG Export Plug-In . SVG Version: 6.00 Build 0)  -->
<svg version="1.1" id="second-mountains" xmlns="http://www.w3.org/2000/svg" xmlns:xlink="http://www.w3.org/1999/xlink" x="0px"
	 y="0px" viewBox="0 0 336 235.2" style="enable-background:new 0 0 336 235.2;" xml:space="preserve">
<style type="text/css">
	.st0{fill:#47828F;}
	.st1{fill:#4E8A94;}
</style>
<g>
	<path class="st0" d="M0,93.3c0,0,38.1,7.9,42.6,4.9c4.5-3,9.5-13,15.5-9.5c6,3.5,7,7.2,10,10.8c3,3.7,5.5,6.7,8,7.7c2.5,1,7,0,7,0
		s6-6.5,11-3c5,3.5,4.5,6.5,8.5,8c4,1.5,9,4.4,10.5,8.2c1.5,3.8,1,3.3,12.5,6.3c11.5,3,19.5,8.5,21.5,12c2,3.5,6,4.4,12.5,6.5
		s14,5.6,14,5.6s4,2.4,10.5,9.4c6.5,7-15.5,73.5-16,75c-0.5,1.5-168,0-168,0"/>
</g>
<g>
	<path class="st1" d="M336,82.2h-29.2c0,0-11.5,7.5-12,9c-0.5,1.5-3.5-3-7,0c-3.5,3-13,7-15.5,8.5c-2.5,1.5-14,3.5-18,6
		c-4,2.5-17.5,11-19,12.5c-1.5,1.5-5-2.1-10.5,2.2c-5.5,4.3-15,4.8-18,7.3c-3,2.5-2.5,2.5-10,4.5c-7.5,2-12.5,0.8-14,4.4
		c-1.5,3.6-8.5,2.1-11.5,7.6c-3,5.5-17.3,14.7-16.4,15.8c0.9,1.1,5,75.1,5,75.1h176V82.2z"/>
</g>
</svg>
