<?xml version="1.0" encoding="utf-8"?>
<!-- Generator: Adobe Illustrator 19.0.0, SVG Export Plug-In . SVG Version: 6.00 Build 0)  -->
<svg version="1.1" id="Layer_7" xmlns="http://www.w3.org/2000/svg" xmlns:xlink="http://www.w3.org/1999/xlink" x="0px" y="0px"
	 viewBox="0 0 231.125 127" enable-background="new 0 0 231.125 127" xml:space="preserve">
<g>
	<path fill="#FFFFFF" d="M230.98,84.471c0-23.427-18.991-42.418-42.417-42.418c-6.893,0-13.396,1.655-19.15,4.572
		c0.042-0.794,0.067-1.592,0.067-2.397c0-24.409-19.788-44.197-44.197-44.197c-19.34,0-35.767,12.427-41.761,29.728
		c-4.102-1.322-8.474-2.043-13.015-2.043c-20.286,0-37.235,14.244-41.418,33.273c-16.381,1.973-29.08,15.912-29.08,32.825
		c0,18.266,14.808,33.074,33.074,33.074h161.315v-0.409C215.061,123.636,230.98,105.918,230.98,84.471z"/>
</g>
<g>
</g>
<g>
</g>
<g>
</g>
<g>
</g>
<g>
</g>
<g>
</g>
</svg>
