<?xml version="1.0" encoding="utf-8"?>
<!-- Generator: Adobe Illustrator 19.0.0, SVG Export Plug-In . SVG Version: 6.00 Build 0)  -->
<svg version="1.1" id="Layer_7" xmlns="http://www.w3.org/2000/svg" xmlns:xlink="http://www.w3.org/1999/xlink" x="0px" y="0px"
	 viewBox="0 0 241.208 120.771" enable-background="new 0 0 241.208 120.771" xml:space="preserve">
<g>
	<path fill="#FFFFFF" d="M201.979,42.245c-4.104,0-8.059,0.633-11.777,1.803c-5.357-15.274-19.895-26.231-36.999-26.231
		c-7.524,0-14.55,2.123-20.52,5.798c-5.97-3.674-12.996-5.798-20.52-5.798c-0.324,0-0.644,0.017-0.965,0.024
		C102.031,6.949,88.305,0.022,72.955,0.022c-27.597,0-49.969,22.372-49.969,49.969c0,3.512,0.366,6.938,1.055,10.245
		C10.322,63.247,0.051,75.465,0.051,90.089c0,16.884,13.687,30.571,30.571,30.571c1.567,0,3.107-0.119,4.61-0.346v0.346h166.746v0
		c21.654,0,39.207-17.554,39.207-39.207S223.632,42.245,201.979,42.245z"/>
</g>
<g>
</g>
<g>
</g>
<g>
</g>
<g>
</g>
<g>
</g>
<g>
</g>
</svg>
