<?xml version="1.0" encoding="utf-8"?>
<!-- Generator: Adobe Illustrator 19.0.0, SVG Export Plug-In . SVG Version: 6.00 Build 0)  -->
<svg version="1.1" id="Layer_7" xmlns="http://www.w3.org/2000/svg" xmlns:xlink="http://www.w3.org/1999/xlink" x="0px" y="0px"
	 viewBox="0 0 261.092 125.835" enable-background="new 0 0 261.092 125.835" xml:space="preserve">
<g>
	<path fill="#FFFFFF" d="M217.817,39.264c-1.68,0-3.334,0.106-4.965,0.292c-7.927-10.004-20.173-16.429-33.928-16.429
		c-4.734,0-9.286,0.771-13.55,2.176C158.543,10.39,143.497,0.024,126.02,0.024c-18.119,0-33.628,11.139-40.075,26.94
		c-4.391-1.5-9.095-2.326-13.994-2.326c-20.696,0-37.988,14.532-42.256,33.946C12.983,60.596,0.028,74.817,0.028,92.072
		c0,18.635,15.107,33.742,33.742,33.742h184.046c23.9,0,43.275-19.375,43.275-43.275C261.092,58.639,241.717,39.264,217.817,39.264z
		"/>
</g>
<g>
</g>
<g>
</g>
<g>
</g>
<g>
</g>
<g>
</g>
<g>
</g>
</svg>
