<?xml version="1.0" encoding="utf-8"?>
<!-- Generator: Adobe Illustrator 19.0.0, SVG Export Plug-In . SVG Version: 6.00 Build 0)  -->
<svg version="1.1" xmlns="http://www.w3.org/2000/svg" xmlns:xlink="http://www.w3.org/1999/xlink" x="0px" y="0px"
	 viewBox="0 0 222.2 222.2" style="enable-background:new 0 0 222.2 222.2;" xml:space="preserve">
<style type="text/css">
	.st0{fill:#FFFFFF;}
</style>
<g id="Ebene_3">
</g>
<g id="layer_1">
	<g id="bubbles">
		<path class="st0" d="M222.2,222.2H0V0h222.2V222.2z M132.3,183.4c6.1,12.1,18.7,21.4,38,21.4c19.8,0,34.6-10.3,34.6-29.1
			c0-17.4-10-25.2-27.8-32.8l-5.2-2.2c-9-3.9-12.8-6.4-12.8-12.7c0-5.1,3.9-8.9,10-8.9c6,0,9.9,2.5,13.4,8.9l16.3-10.4
			c-6.9-12.1-16.4-16.7-29.7-16.7c-18.6,0-30.6,11.9-30.6,27.6c0,17,10,25,25.1,31.5l5.2,2.2c9.5,4.2,15.2,6.7,15.2,13.9
			c0,6-5.5,10.3-14.2,10.3c-10.3,0-16.1-5.4-20.6-12.7L132.3,183.4z M58.5,185.7c4.9,10.4,14.6,19.1,31.3,19.1
			c18.5,0,31.2-9.8,31.2-31.5V102h-20.9v71c0,10.4-4.3,13.1-11.2,13.1c-7.2,0-10.2-4.9-13.4-10.7L58.5,185.7z"/>
	</g>
</g>
</svg>
