<?xml version="1.0" encoding="utf-8"?>
<!-- Generator: Adobe Illustrator 19.0.0, SVG Export Plug-In . SVG Version: 6.00 Build 0)  -->
<svg version="1.1" xmlns="http://www.w3.org/2000/svg" xmlns:xlink="http://www.w3.org/1999/xlink" x="0px" y="0px"
	 viewBox="0 0 240 90" style="enable-background:new 0 0 240 90;" xml:space="preserve">
<style type="text/css">
	.st0{fill:#E8A65B;}
	.st1{fill:#F0C18B;}
	.st2{fill:#DD7F0E;}
</style>
<g id="Ebene_2">
	<rect id="XMLID_23_" class="st0" width="240" height="90"/>
</g>
<g id="Ebene_3">
	<g id="XMLID_1454_">
		<path id="XMLID_1456_" class="st1" d="M33.4,17.4c2.3,0,4.2-1.9,4.2-4.2s-1.9-4.2-4.2-4.2H0v8.5L33.4,17.4L33.4,17.4z"/>
		<path id="XMLID_1455_" class="st1" d="M80,57.3H66.6c-2.3,0-4.2,1.9-4.2,4.2s1.9,4.2,4.2,4.2H80V57.3z"/>
	</g>
	<path id="XMLID_1453_" class="st1" d="M35.3,49.7H16.2c-1.1,0-1.9-0.9-1.9-1.9c0-1,0.9-1.9,1.9-1.9h5.3c2.4,0,4.3-1.9,4.3-4.3
		c0-2.4-1.9-4.3-4.3-4.3H0c0,0,0,5.7,0,8.7c0,2.1,0,6.1,0,6.1h35.4c0.7,0,1.2-0.5,1.2-1.2S36,49.7,35.3,49.7z"/>
	<path id="XMLID_1452_" class="st2" d="M55.9,66.8H35.6c-1.2,0-2.2-1-2.2-2.2s1-2.2,2.2-2.2h2c1.7,0,3.2-1.4,3.2-3.2
		c0-1.7-1.4-3.2-3.2-3.2H0v25h43.8c1.7,0,3.2-1.4,3.2-3.2s-1.4-3.2-3.2-3.2h-4.1c-1.2,0-2.2-1-2.2-2.2c0-1.2,1-2.2,2.2-2.2h16.2
		c1,0,1.7-0.8,1.7-1.7C57.6,67.6,56.8,66.8,55.9,66.8z"/>
	<path id="XMLID_1451_" class="st2" d="M80,19.8H51.9c-1-0.2-1.9,0.6-1.9,1.7c0,1,0.9,1.9,1.9,1.9h8.6c1.4,0,2.6,1.2,2.6,2.6
		s-1.2,2.6-2.6,2.6h-20c-2.7,0-4.9,2.2-4.9,4.9c0,2.7,2.2,4.9,4.9,4.9h14.3c1.4,0,2.6,1.2,2.6,2.6c0,1.4-1.2,2.6-2.6,2.6h-5.7
		c-1,0-1.9,0.9-1.9,1.9c0,1,0.9,1.9,1.9,1.9H80"/>
	<g id="XMLID_45_">
		<path id="XMLID_411_" class="st1" d="M126.6,17.5H160V9.1h-33.4c-2.3,0-4.2,1.9-4.2,4.2S124.3,17.4,126.6,17.5L126.6,17.5z"/>
		<path id="XMLID_46_" class="st1" d="M80,65.7h13.4c2.3,0,4.2-1.9,4.2-4.2s-1.9-4.2-4.2-4.2H80V65.7z"/>
	</g>
	<path id="XMLID_44_" class="st1" d="M123.4,50.9c0,0.7,0.5,1.2,1.2,1.2H160c0,0,0-4,0-6.1c0-3,0-8.7,0-8.7h-21.5
		c-2.4,0-4.3,1.9-4.3,4.3c0,2.4,1.9,4.3,4.3,4.3h5.3c1,0,1.9,0.9,1.9,1.9c0,1-0.8,1.9-1.9,1.9h-19.2C124,49.7,123.4,50.2,123.4,50.9
		z"/>
	<path id="XMLID_43_" class="st2" d="M102.4,68.5c0,0.9,0.7,1.7,1.7,1.7h16.2c1.2,0,2.2,1,2.2,2.2c0,1.2-1,2.2-2.2,2.2h-4.1
		c-1.8,0-3.2,1.4-3.2,3.2s1.5,3.2,3.2,3.2H160V56h-37.6c-1.8,0-3.2,1.5-3.2,3.2c0,1.8,1.5,3.2,3.2,3.2h2c1.2,0,2.2,1,2.2,2.2
		s-1,2.2-2.2,2.2h-20.4C103.2,66.8,102.4,67.6,102.4,68.5z"/>
	<path id="XMLID_42_" class="st2" d="M80,47.4h30.9c1,0,1.9-0.9,1.9-1.9c0-1-0.9-1.9-1.9-1.9h-5.7c-1.4,0-2.6-1.2-2.6-2.6
		c0-1.4,1.2-2.6,2.6-2.6h14.3c2.7,0,4.9-2.2,4.9-4.9c0-2.7-2.2-4.9-4.9-4.9h-20c-1.4,0-2.6-1.2-2.6-2.6s1.2-2.6,2.6-2.6h8.6
		c1,0,1.9-0.9,1.9-1.9c0-1.1-0.9-1.9-1.9-1.7H80"/>
	<g id="XMLID_1363_">
		<path id="XMLID_1365_" class="st1" d="M193.4,17.4c2.3,0,4.2-1.9,4.2-4.2s-1.9-4.2-4.2-4.2H160v8.5L193.4,17.4L193.4,17.4z"/>
		<path id="XMLID_1364_" class="st1" d="M240,57.3h-13.4c-2.3,0-4.2,1.9-4.2,4.2s1.9,4.2,4.2,4.2H240V57.3z"/>
	</g>
	<path id="XMLID_1362_" class="st1" d="M195.3,49.7h-19.2c-1.1,0-1.9-0.9-1.9-1.9c0-1,0.9-1.9,1.9-1.9h5.3c2.4,0,4.3-1.9,4.3-4.3
		c0-2.4-1.9-4.3-4.3-4.3H160c0,0,0,5.7,0,8.7c0,2.1,0,6.1,0,6.1h35.4c0.7,0,1.2-0.5,1.2-1.2S196,49.7,195.3,49.7z"/>
	<path id="XMLID_1361_" class="st2" d="M215.9,66.8h-20.4c-1.2,0-2.2-1-2.2-2.2s1-2.2,2.2-2.2h2c1.7,0,3.2-1.4,3.2-3.2
		c0-1.7-1.4-3.2-3.2-3.2H160v25h43.8c1.7,0,3.2-1.4,3.2-3.2s-1.4-3.2-3.2-3.2h-4.1c-1.2,0-2.2-1-2.2-2.2c0-1.2,1-2.2,2.2-2.2h16.2
		c1,0,1.7-0.8,1.7-1.7C217.6,67.6,216.8,66.8,215.9,66.8z"/>
	<path id="XMLID_1360_" class="st2" d="M240,19.8h-28.1c-1-0.2-1.9,0.6-1.9,1.7c0,1,0.9,1.9,1.9,1.9h8.6c1.4,0,2.6,1.2,2.6,2.6
		s-1.2,2.6-2.6,2.6h-20c-2.7,0-4.9,2.2-4.9,4.9c0,2.7,2.2,4.9,4.9,4.9h14.3c1.4,0,2.6,1.2,2.6,2.6c0,1.4-1.2,2.6-2.6,2.6h-5.7
		c-1,0-1.9,0.9-1.9,1.9c0,1,0.9,1.9,1.9,1.9H240"/>
</g>
</svg>
