<?xml version="1.0" encoding="utf-8"?>
<!-- Generator: Adobe Illustrator 19.0.0, SVG Export Plug-In . SVG Version: 6.00 Build 0)  -->
<svg version="1.1" id="Layer_3" xmlns="http://www.w3.org/2000/svg" xmlns:xlink="http://www.w3.org/1999/xlink" x="0px" y="0px"
	 viewBox="144 -19.9 553 553" style="enable-background:new 144 -19.9 553 553;" xml:space="preserve">
<style type="text/css">
	.st0{fill:#FFFFFF;}
</style>
<path class="st0" d="M144,256.5c0-80.3,123.8-145.4,276.5-145.4S697,176.2,697,256.5S573.2,402,420.5,402S144,336.9,144,256.5z
	 M420.5,391.2c146.7,0,265.7-60.3,265.7-134.6s-119-134.7-265.7-134.7s-265.7,60.3-265.7,134.6S273.8,391.2,420.5,391.2z"/>
<g>
	<path class="st0" d="M305.5,215.2c12.1,0,20.1,2.2,24.1,6.7s5,12.1,2.9,22.9c-2.2,11.3-6.4,19.3-12.7,24.2
		c-6.3,4.8-15.8,7.2-28.6,7.2h-19.3l11.9-61C283.8,215.2,305.5,215.2,305.5,215.2z M228.1,338h31.7l7.5-38.8h27.2
		c12,0,21.9-1.3,29.6-3.8c7.8-2.5,14.8-6.7,21.1-12.7c5.3-4.9,9.6-10.3,12.9-16.2c3.3-5.9,5.6-12.4,7-19.5
		c3.4-17.3,0.8-30.7-7.6-40.4c-8.4-9.6-21.8-14.5-40.2-14.5h-61.1L228.1,338z"/>
	<path class="st0" d="M388.6,153.5h31.5l-7.5,38.8h28.1c17.7,0,29.8,3.1,36.5,9.2c6.7,6.2,8.7,16.1,6,29.9L470,299.2h-32l12.5-64.5
		c1.4-7.3,0.9-12.3-1.6-15s-7.7-4-15.8-4H408l-16.2,83.5h-31.5L388.6,153.5z"/>
	<path class="st0" d="M553.3,215.2c12.1,0,20.1,2.2,24.1,6.7s5,12.1,2.9,22.9c-2.2,11.3-6.4,19.3-12.7,24.2
		c-6.3,4.8-15.8,7.2-28.6,7.2h-19.3l11.9-61C531.6,215.2,553.3,215.2,553.3,215.2z M476,338h31.8l7.5-38.8h27.2
		c12,0,21.9-1.3,29.6-3.8c7.8-2.5,14.8-6.7,21.1-12.7c5.3-4.9,9.6-10.3,12.9-16.2c3.3-5.9,5.6-12.4,7-19.5
		c3.4-17.3,0.8-30.7-7.6-40.4c-8.4-9.6-21.8-14.5-40.2-14.5h-61.1L476,338z"/>
</g>
</svg>
