<?xml version="1.0" encoding="utf-8"?>
<!-- Generator: Adobe Illustrator 19.0.0, SVG Export Plug-In . SVG Version: 6.00 Build 0)  -->
<svg version="1.1" id="Ebene_1" xmlns="http://www.w3.org/2000/svg" xmlns:xlink="http://www.w3.org/1999/xlink" x="0px" y="0px"
	 viewBox="-90 214.8 83.1 84.2" style="enable-background:new -90 214.8 83.1 84.2;" xml:space="preserve">
<style type="text/css">
	.st0{fill:#FFFFFF;}
</style>
<path class="st0" d="M-30.3,270.5c-1.1,0.3-1.9,0.4-3,0.4c-9.1,0-22.5-31.9-22.5-42.5c0-3.9,0.9-5.2,2.2-6.3
	c-11.2,1.3-24.6,5.4-28.8,10.6c-0.9,1.3-1.5,3.3-1.5,6c0,16.6,17.7,54.1,30.1,54.1C-48,292.8-38.3,283.3-30.3,270.5"/>
<path class="st0" d="M-36.1,221c11.5,0,23.1,1.9,23.1,8.4c0,13.2-8.4,29.2-12.7,29.2c-7.6,0-17.1-21.2-17.1-31.8
	C-42.8,221.9-40.9,221-36.1,221"/>
</svg>
